<?xml version="1.0" encoding="UTF-8"?>
<!DOCTYPE svg PUBLIC "-//W3C//DTD SVG 1.1//EN" "http://www.w3.org/Graphics/SVG/1.1/DTD/svg11.dtd">
<!-- Creator: CorelDRAW 2019 (64 Bit) -->
<svg xmlns="http://www.w3.org/2000/svg" xml:space="preserve" width="100mm" height="100mm" version="1.1" style="shape-rendering:geometricPrecision; text-rendering:geometricPrecision; image-rendering:optimizeQuality; fill-rule:evenodd; clip-rule:evenodd"
viewBox="0 0 10000 10000"
 xmlns:xlink="http://www.w3.org/1999/xlink"
 xmlns:xodm="http://www.corel.com/coreldraw/odm/2003">
 <defs>
  <style type="text/css">
   <![CDATA[
    .str1 {stroke:#0063A6;stroke-width:143.68;stroke-miterlimit:10}
    .str0 {stroke:#A4D0DB;stroke-width:215.53;stroke-miterlimit:10}
    .fil5 {fill:#0063A6}
    .fil6 {fill:#FDFDFD}
    .fil2 {fill:#F7F7F6;fill-rule:nonzero}
    .fil7 {fill:#47575F;fill-rule:nonzero}
    .fil1 {fill:#0063A6;fill-rule:nonzero}
    .fil4 {fill:#A4D0DB;fill-rule:nonzero}
    .fil3 {fill:#B58D1F;fill-rule:nonzero}
    .fil0 {fill:#D4B96F;fill-rule:nonzero}
    .fil8 {fill:white;fill-rule:nonzero}
    .fil9 {fill:white;fill-rule:nonzero}
   ]]>
  </style>
 </defs>
 <g id="Camada_x0020_1">
  <metadata id="CorelCorpID_0Corel-Layer"/>
  <path class="fil0" d="M1934.94 6467.25c34.86,42.99 85.37,83.7 145.03,116.25 59.13,33.01 134.35,51.88 208.3,60.94 74.9,8.36 142.61,2.67 199.28,-13.22 57.77,-17.06 104.69,-44.34 136.07,-76.31 -37.86,-30.24 -82.48,-62.89 -141.21,-85.35 -57.12,-23.89 -127.79,-38.74 -199.24,-50.07 -142.74,-22.34 -275.75,-5.37 -348.23,47.76z"/>
  <path class="fil0" d="M8225.01 3893.54c20.13,142.62 29.9,284.33 29.9,424.35 0.04,1272.56 -806.82,2406.27 -1992.06,2832.02 -196.52,71.11 -938.36,397.41 -1325.61,801.62l40.32 38.46c372.75,-391.13 1114.53,-720 1304.12,-787.64 1207.38,-433.8 2028.88,-1588.15 2028.94,-2884.46 0,-142.59 -9.96,-286.91 -30.45,-432.14l-55.16 7.79 0 0z"/>
  <path class="fil0" d="M7056.98 7360.12c-46.46,30.4 -110.11,46.6 -178.86,52.68 -68.74,6.05 -142.62,1.51 -214.53,-17.16 -147.41,-44.28 -245.18,-128.47 -279.56,-211.41 44.93,-17.71 101,-25.51 164.36,-23.4 62,-0.71 130.19,5.79 201.96,24.01 71.31,17.46 137.29,44.74 189.67,73.62 52.24,28.79 93.19,63.51 116.96,101.66z"/>
  <path class="fil0" d="M6538.58 6491.4c-32.11,23.41 -65.62,54.97 -94.86,99.35 -29.29,44.24 -54.76,101 -74.94,165.88 -43.32,122.63 -53.24,251.06 -21.48,335.1 42.92,-18.36 86.9,-51.68 125.46,-95.72 37.29,-46.79 67.77,-106.93 87.96,-171.75 19.83,-65.62 27.03,-127.12 21.6,-185.15 -5.55,-58.22 -21.24,-108.8 -43.74,-147.71z"/>
  <path class="fil0" d="M7599.53 6960.59c-20.9,18.22 -45.4,35.22 -72.72,50.33 -27.08,15.45 -57.38,28.47 -91.34,36.87 -66.93,18.18 -141.27,26.48 -215.69,21.45 -73.68,-3.83 -140.96,-24.91 -194.67,-52.84 -53.64,-27.74 -94.05,-62.7 -118.91,-100.15 84.65,-46.84 211.21,-78.1 360.38,-68.08 75.38,6.13 140.5,14.63 198.23,34.12 57.16,18.76 104.17,45.33 134.72,78.3z"/>
  <path class="fil0" d="M6925.83 6205.91c-14.5,13.5 -27.78,30.4 -39.66,50.49 -11.63,20.37 -22.4,43.32 -33.41,66.83 -20.99,48.26 -36.19,107.53 -43.98,174.72 -7.01,68.35 -8.76,131.2 -2.03,188.22 6.91,57.22 22.1,108.1 45.75,146.29 80.83,-47.5 143.48,-168.99 159.43,-302.3 9.06,-65.67 -0.3,-133.21 -15.81,-188.17 -15.99,-55.71 -40.81,-102.15 -70.29,-136.08z"/>
  <path class="fil0" d="M8057.44 6467.25c-34.88,42.99 -85.35,83.7 -145.04,116.25 -59.13,33.01 -134.32,51.88 -208.3,60.94 -74.88,8.36 -142.61,2.67 -199.29,-13.22 -57.77,-17.06 -104.68,-44.34 -136.08,-76.31 37.91,-30.24 82.49,-62.89 141.22,-85.35 57.12,-23.89 127.83,-38.74 199.28,-50.07 142.73,-22.34 275.74,-5.37 348.21,47.76z"/>
  <path class="fil0" d="M7253.7 5852.93c-24.27,31.31 -41.17,75.19 -50.19,128.85 -8.4,54.03 -15.99,111.87 -10.91,179.3 4.18,66.67 16.56,131.04 35.32,187.16 17.68,54.95 41.67,101.45 72.23,134.56 35.83,-30.14 59.68,-82.02 78.24,-138.04 17.02,-57.52 27.99,-120.22 20.79,-189.52 -14.28,-138.9 -74.72,-246.94 -145.48,-302.31z"/>
  <path class="fil0" d="M8415.54 5897.13c-26.66,48.51 -70,97.27 -123.5,139.95 -53.44,42.73 -116.8,79.46 -191.32,100.09 -146.09,43.44 -272.91,26.12 -346.65,-25.05 27.43,-39.72 69.46,-77.21 122.99,-110.27 26.28,-16.81 57.42,-31.3 87.32,-46.65 30.05,-15.25 62.6,-29.04 97.14,-41.07 137.93,-47.76 273.25,-55.35 354.02,-17z"/>
  <path class="fil0" d="M7510.55 5445.06c-18.46,34.98 -28.18,80.51 -27.88,134.31 0.3,53.85 10.72,116.16 24.77,179.25 31.49,127.94 93.55,242.07 165.72,295.57 25.4,-39.2 43.48,-91.64 51.22,-150.17 3.37,-29.55 6.24,-59.39 2.47,-92.14 -3.58,-32.61 -10.01,-65.88 -19.59,-98.95 -38.18,-132.65 -116.39,-226.6 -196.71,-267.87z"/>
  <path class="fil0" d="M8656.15 5267.66c-7.55,26.67 -17.87,54.6 -33.37,81.88 -16.56,26.92 -36.53,53.79 -59.43,79.61 -45.7,51.69 -102.96,99.09 -167.53,135.28 -136.49,69.7 -266.17,75.79 -348.06,39.5 20.39,-43.74 55.77,-87.97 103.23,-130.08 43.08,-43.78 98.29,-85.57 162.65,-121.84 131.04,-71.57 254.89,-106.99 342.51,-84.35z"/>
  <path class="fil0" d="M7681.9 4995.2c-4.78,19.23 -5.58,40.92 -5.43,64.01 -0.9,22.75 1.01,47.42 5.59,73.52 9.21,52.3 29.28,110.77 59.68,171.87 53.96,119.12 134.53,218.66 215.65,257.72 18.52,-42.88 27.52,-97.29 25.15,-155.76 -6.59,-60.15 -24.55,-124.25 -54.75,-185.2 -58.01,-121.54 -160.28,-201.15 -245.89,-226.16z"/>
  <path class="fil0" d="M8774.11 4603.88c-6.19,55.1 -21.94,117.3 -58.33,176.53 -36.13,59.29 -84.44,116.6 -142.01,164.26 -28.79,23.81 -58.03,43.74 -87.02,59.85 -30.6,15.75 -60.88,27.71 -89.87,36.13 -58.13,16.81 -111.57,19.32 -155.41,9.3 29.75,-92.09 98.13,-202.39 214.34,-297.77 29.38,-23.75 57.26,-45.34 84.29,-64.27 27.52,-18.81 55.21,-34.86 82.38,-47.8 54.4,-25.82 106.79,-39.06 151.63,-36.23z"/>
  <path class="fil0" d="M7765.8 4521.95c-3.57,39.36 10.67,85.85 28.38,135.22 17.86,49.37 47.61,102.71 88.08,156.71 20.23,26.97 41.81,52.39 64.21,75.69 20.78,22.95 42.42,43.83 64.62,62.21 44.28,36.67 90.27,63.05 133.71,74.42 26.57,-89.98 -13.6,-221.53 -92.66,-328.81 -19.37,-26.88 -42.52,-50.99 -67.33,-72.03 -24.31,-20.98 -49.31,-38.8 -74.32,-53.4 -49.97,-29.22 -99.96,-45.79 -144.69,-50.01z"/>
  <path class="fil0" d="M8764.7 3930.72c4.73,55.11 -3.37,119.33 -23.7,184 -21.84,64.76 -61.75,130.28 -109.31,187.96 -48.36,57.73 -101.2,100.36 -153.14,127.93 -53.64,27.53 -106.44,40.11 -151.23,38.64 6.75,-48 16.26,-102.45 43.18,-159.17 25.21,-56.76 64.47,-116.25 110.32,-173.88 87.16,-114.53 194.75,-193.95 283.88,-205.48z"/>
  <path class="fil0" d="M8200.56 3380.73c42.12,35.89 81.53,87.21 112.52,147.46 29.99,61.44 47.76,136.07 54.45,210.5 6.24,75.09 -1.41,142.52 -18.93,198.64 -18.75,57.32 -47.44,103.41 -80.31,133.81 -28.99,-38.85 -60.48,-84.25 -81.27,-143.52 -22,-58.08 -35.89,-127.98 -43.78,-201.16 -18.63,-142.77 2.06,-274.88 57.32,-345.73z"/>
  <path class="fil0" d="M7759.01 4040.5c4.37,39.44 22.85,82.92 53.75,127.91 29.33,45.1 65.26,92 115.13,137.34 49.17,45.35 102.67,83.39 155.01,111.07 50.63,27.53 100.04,44.63 145.03,47.56 5.28,-46.51 -13.43,-100.55 -38.75,-153.9 -27.07,-53.39 -63.96,-106.23 -115.1,-151.52 -106.93,-90.65 -225.65,-127.18 -315.07,-118.46z"/>
  <path class="fil0" d="M4845.86 7945.6l150.31 153.23c0,0 494.39,-628.05 1276.09,-922.7 0,0 -859.5,177.54 -1426.4,769.47z"/>
  <path class="fil0" d="M1712.18 3885.75c-20.47,145.23 -30.42,289.55 -30.42,432.14 0.05,1296.31 821.58,2450.66 2028.91,2884.46 189.58,67.64 931.42,396.51 1304.17,787.64l40.26 -38.46c-387.24,-404.21 -1129.04,-730.51 -1325.56,-801.62 -1185.26,-425.75 -1992.11,-1559.46 -1992.05,-2832.02 0,-140.02 9.76,-281.73 29.86,-424.35l-55.17 -7.79 0 0z"/>
  <path class="fil0" d="M2935.42 7360.12c46.4,30.4 110.11,46.6 178.8,52.68 68.75,6.05 142.68,1.51 214.54,-17.16 147.4,-44.28 245.23,-128.47 279.55,-211.41 -44.89,-17.71 -100.95,-25.51 -164.3,-23.4 -62.06,-0.71 -130.25,5.79 -201.96,24.01 -71.31,17.46 -137.34,44.74 -189.73,73.62 -52.24,28.79 -93.19,63.51 -116.9,101.66z"/>
  <path class="fil0" d="M3453.82 6491.4c32.1,23.41 65.56,54.97 94.86,99.35 29.29,44.24 54.7,101 74.93,165.88 43.28,122.63 53.19,251.06 21.49,335.1 -42.98,-18.36 -86.91,-51.68 -125.5,-95.72 -37.25,-46.79 -67.79,-106.93 -87.93,-171.75 -19.82,-65.62 -27.06,-127.12 -21.63,-185.15 5.54,-58.22 21.23,-108.8 43.78,-147.71z"/>
  <path class="fil0" d="M3066.52 6205.91c14.53,13.5 27.77,30.4 39.7,50.49 11.62,20.37 22.35,43.32 33.36,66.83 21.05,48.26 36.2,107.53 44.04,174.72 6.95,68.35 8.76,131.2 2.01,188.22 -6.89,57.22 -22.09,108.1 -45.75,146.29 -80.87,-47.5 -143.46,-168.99 -159.47,-302.3 -9.01,-65.67 0.36,-133.21 15.81,-188.17 16.05,-55.71 40.85,-102.15 70.3,-136.08z"/>
  <path class="fil0" d="M2738.66 5852.93c24.29,31.31 41.15,75.19 50.17,128.85 8.44,54.03 15.99,111.87 10.97,179.3 -4.18,66.67 -16.61,131.04 -35.34,187.16 -17.7,54.95 -41.69,101.45 -72.24,134.56 -35.82,-30.14 -59.7,-82.02 -78.26,-138.04 -17,-57.52 -27.98,-120.22 -20.75,-189.52 14.29,-138.9 74.73,-246.94 145.45,-302.31z"/>
  <path class="fil0" d="M1576.82 5897.13c26.7,48.51 70.03,97.27 123.51,139.95 53.45,42.73 116.79,79.46 191.31,100.09 146.11,43.44 272.91,26.12 346.63,-25.05 -27.37,-39.72 -69.44,-77.21 -122.95,-110.27 -26.26,-16.81 -57.45,-31.3 -87.3,-46.65 -30.1,-15.25 -62.61,-29.04 -97.15,-41.07 -137.96,-47.76 -273.28,-55.35 -354.05,-17z"/>
  <path class="fil0" d="M2481.81 5445.06c18.47,34.98 28.19,80.51 27.9,134.31 -0.32,53.85 -10.74,116.16 -24.76,179.25 -31.51,127.94 -93.57,242.07 -165.72,295.57 -25.42,-39.2 -43.48,-91.64 -51.23,-150.17 -3.41,-29.55 -6.25,-59.39 -2.48,-92.14 3.57,-32.61 10.01,-65.88 19.57,-98.95 38.2,-132.65 116.44,-226.6 196.72,-267.87z"/>
  <path class="fil0" d="M1336.21 5267.66c7.57,26.67 17.89,54.6 33.39,81.88 16.56,26.92 36.54,53.79 59.39,79.61 45.73,51.69 102.99,99.09 167.57,135.28 136.46,69.7 266.17,75.79 348.03,39.5 -20.38,-43.74 -55.77,-87.97 -103.19,-130.08 -43.11,-43.78 -98.29,-85.57 -162.67,-121.84 -131.04,-71.57 -254.89,-106.99 -342.52,-84.35z"/>
  <path class="fil0" d="M2310.44 4995.2c4.8,19.23 5.61,40.92 5.45,64.01 0.9,22.75 -0.98,47.42 -5.59,73.52 -9.19,52.3 -29.24,110.77 -59.67,171.87 -53.95,119.12 -134.51,218.66 -215.64,257.72 -18.51,-42.88 -27.51,-97.29 -25.19,-155.76 6.59,-60.15 24.58,-124.25 54.79,-185.2 58.02,-121.54 160.26,-201.15 245.85,-226.16z"/>
  <path class="fil0" d="M1218.28 4603.88c6.19,55.1 21.94,117.3 58.28,176.53 36.18,59.29 84.5,116.6 142.06,164.26 28.77,23.81 58.03,43.74 87.02,59.85 30.57,15.75 60.84,27.71 89.88,36.13 58.09,16.81 111.56,19.32 155.38,9.3 -29.7,-92.09 -98.12,-202.39 -214.37,-297.77 -29.35,-23.75 -57.24,-45.34 -84.26,-64.27 -27.5,-18.81 -55.19,-34.86 -82.4,-47.8 -54.38,-25.82 -106.76,-39.06 -151.59,-36.23z"/>
  <path class="fil0" d="M2226.56 4521.95c3.6,39.36 -10.67,85.85 -28.39,135.22 -17.87,49.37 -47.57,102.71 -88.04,156.71 -20.23,26.97 -41.86,52.39 -64.22,75.69 -20.8,22.95 -42.43,43.83 -64.6,62.21 -44.29,36.67 -90.31,63.05 -133.76,74.42 -26.51,-89.98 13.61,-221.53 92.66,-328.81 19.42,-26.88 42.51,-50.99 67.34,-72.03 24.33,-20.98 49.33,-38.8 74.3,-53.4 50,-29.22 99.99,-45.79 144.71,-50.01z"/>
  <path class="fil0" d="M1227.69 3930.72c-4.74,55.11 3.37,119.33 23.7,184 21.84,64.76 61.72,130.28 109.31,187.96 48.32,57.73 101.18,100.36 153.12,127.93 53.64,27.53 106.45,40.11 151.22,38.64 -6.71,-48 -16.25,-102.45 -43.18,-159.17 -25.18,-56.76 -64.48,-116.25 -110.3,-173.88 -87.16,-114.53 -194.74,-193.95 -283.87,-205.48z"/>
  <path class="fil0" d="M1791.8 3380.73c-42.1,35.89 -81.51,87.21 -112.5,147.46 -30.01,61.44 -47.77,136.07 -54.45,210.5 -6.26,75.09 1.37,142.52 18.9,198.64 18.79,57.32 47.48,103.41 80.34,133.81 28.99,-38.85 60.5,-84.25 81.26,-143.52 22,-58.08 35.88,-127.98 43.79,-201.16 18.61,-142.77 -2.08,-274.88 -57.34,-345.73z"/>
  <path class="fil0" d="M2233.34 4040.5c-4.35,39.44 -22.81,82.92 -53.7,127.91 -29.35,45.1 -65.3,92 -115.17,137.34 -49.15,45.35 -102.64,83.39 -155,111.07 -50.64,27.53 -100.07,44.63 -145.03,47.56 -5.31,-46.51 13.45,-100.55 38.77,-153.9 27.05,-53.39 63.97,-106.23 115.09,-151.52 106.92,-90.65 225.67,-127.18 315.04,-118.46z"/>
  <path class="fil0" d="M5146.5 7945.6l-150.33 153.23c0,0 -494.39,-628.05 -1276.03,-922.7 0,0 859.5,177.54 1426.36,769.47z"/>
  <path class="fil1" d="M8141.87 1538.68c143.41,115.76 286.81,231.52 430.21,347.22 -445.45,428.49 -835.21,911.32 -1160.07,1437.14 -143.36,-115.77 -286.76,-231.52 -430.16,-347.28 445.44,-428.49 835.19,-911.32 1160.02,-1437.08z"/>
  <polygon class="fil1" points="6748.48,2898.19 7537.1,3534.77 7632.58,3416.48 6843.97,2779.89 "/>
  <polygon class="fil1" points="2780.67,8180.28 2463.08,9013.78 3210.84,8527.51 7357.87,3390.1 6927.7,3042.87 "/>
  <polygon class="fil2" points="3150.68,8460.85 7233.15,3403.41 7087.05,3285.48 2642.82,8791.06 "/>
  <path class="fil3" d="M4551.77 1711.65c-169.76,87.28 -359.27,57.11 -359.27,57.11 0,0 85.73,-171.66 255.55,-258.93 169.76,-87.32 359.27,-57.12 359.27,-57.12 0,0 -85.72,171.66 -255.55,258.94z"/>
  <path class="fil3" d="M5440.63 1711.65c169.79,87.28 359.3,57.11 359.3,57.11 0,0 -85.79,-171.66 -255.55,-258.93 -169.79,-87.32 -359.3,-57.12 -359.3,-57.12 0,0 85.76,171.66 255.55,258.94z"/>
  <path class="fil0" d="M5746.45 2279.52c0,0 -54.89,-70.49 -54.89,-157.38 0,-86.92 54.89,-157.37 54.89,-157.37 0,0 54.96,70.45 54.96,157.37 0,86.89 -54.96,157.38 -54.96,157.38zm-344.06 0c0,0 -67.63,-86.75 -67.63,-193.71 0,-106.97 67.63,-193.68 67.63,-193.68 0,0 67.63,86.71 67.63,193.68 0,106.96 -67.63,193.71 -67.63,193.71zm-406.19 0c0,0 -97.16,-124.61 -97.16,-278.31 0,-153.71 97.16,-278.27 97.16,-278.27 0,0 97.19,124.56 97.19,278.27 0,153.7 -97.19,278.31 -97.19,278.31zm-406.15 0c0,0 -67.63,-86.75 -67.63,-193.71 0,-106.97 67.63,-193.68 67.63,-193.68 0,0 67.59,86.71 67.59,193.68 0,106.96 -67.59,193.71 -67.59,193.71zm-344.14 0c0,0 -54.93,-70.49 -54.93,-157.38 0,-86.92 54.93,-157.37 54.93,-157.37 0,0 54.96,70.45 54.96,157.37 0,86.89 -54.96,157.38 -54.96,157.38zm1976.3 -958.18c-66.99,76.06 -177.27,76.06 -177.27,76.06 61.06,68.29 37.22,126.22 29.24,156.28 -33.51,125.9 -200.38,491.42 -719.7,197.9 -497.38,-281.09 -248.71,-596.61 -207.26,-631.89 0,0 -106.68,-25.4 -151.02,-125.87 -44.31,100.47 -150.99,125.87 -150.99,125.87 41.42,35.28 290.12,350.8 -207.26,631.89 -519.32,293.52 -686.22,-72 -719.7,-197.9 -7.97,-30.06 -31.82,-87.99 29.21,-156.28 0,0 -110.28,0 -177.23,-76.06 0,0 3.91,116.2 -80.75,173.32 0,0 80.71,14.04 104.38,60.81 192.16,350.42 113.07,855.49 113.07,855.49l2178.58 0c0,0 -79.13,-505.07 113.06,-855.49 23.67,-46.77 104.35,-60.81 104.35,-60.81 -84.66,-57.12 -80.71,-173.32 -80.71,-173.32z"/>
  <path class="fil4 str0" d="M2858.28 3950.56l-16.82 6.25c88.83,239.05 133.38,477.78 133.38,713.38 0,81.58 -5.35,162.76 -16.04,243.48 -38.52,290.59 -113.36,551.56 -179.71,782.63 -73.95,257.91 -139.25,484.28 -139.35,698.11 -0.14,178.85 46.5,348.97 171.63,516.93 125.07,168.04 327.57,334.25 639.21,510.15 1018.77,574.91 1398.6,866.62 1533.59,988.86l12.03 10.91 12.08 -10.91c134.95,-122.24 514.74,-413.95 1533.55,-988.86 311.61,-175.9 514.13,-342.11 639.17,-510.15 125.15,-167.96 171.77,-338.04 171.63,-516.88 -0.07,-213.88 -65.37,-440.25 -139.34,-698.16 -66.34,-231.07 -141.2,-492.04 -179.71,-782.63 -10.7,-80.69 -16.05,-161.9 -16.05,-243.44 0.03,-235.61 44.58,-474.37 133.41,-713.42l6.14 -16.52 -16.42 -6.47c-407.09,-159.56 -698.29,-533.02 -753.33,-967.23l-1.97 -15.7 -2778.33 0 -1.97 15.7c-55.02,434.17 -346.32,807.64 -753.33,967.23l-16.43 6.47 6.16 16.52 16.82 -6.25 6.57 16.74c419.33,-164.52 719.1,-548.83 775.82,-996.18l-17.82 -2.26 0 17.95 2746.66 0 0 -17.95 -17.8 2.26c56.75,447.35 356.43,831.66 775.84,996.18l6.54 -16.74 -16.81 -6.25c-90.24,242.68 -135.67,485.75 -135.67,725.92 0,83.12 5.46,165.88 16.37,248.17 38.95,293.8 114.45,556.7 180.8,787.81 74.1,257.91 138.04,481.84 137.92,688.25 -0.14,172.74 -43.96,333.19 -164.51,495.44 -120.59,162.18 -318.94,325.91 -628.03,500.3 -1020.04,575.71 -1401.37,868.1 -1539.99,993.53l12.03 13.29 12.08 -13.29c-138.7,-125.43 -520.03,-417.82 -1540.03,-993.53 -309.12,-174.43 -507.46,-338.12 -628.07,-500.3 -120.53,-162.28 -164.37,-322.7 -164.51,-495.49 -0.11,-206.36 63.85,-430.29 137.95,-688.2 66.34,-231.11 141.84,-494.01 180.8,-787.81 10.89,-82.29 16.34,-165.05 16.34,-248.21 0,-240.13 -45.43,-483.24 -135.64,-725.88l-16.84 6.25 6.57 16.74 -6.57 -16.74zm2136.63 4722.34l14.76 -10.28 -69.5 -99.68 -0.47 -0.54c-18.28,-21.98 -242.06,-276.95 -1557.58,-1019.57 -346.42,-195.47 -567.44,-384.13 -701.53,-571.53 -134.04,-187.47 -182.08,-373.54 -182.2,-568.09 -0.08,-232.94 69.94,-477.95 146.77,-745.35 67.78,-236.24 138.26,-481.54 175.49,-762.48 9.88,-74.46 14.8,-149.46 14.8,-224.86 0,-245.91 -52.46,-496.03 -156.45,-745.93l-29.54 -71.05 73.6 -22.38c423.51,-128.88 724.91,-512.09 750.34,-953.9l3.77 -65.71 3038.04 0 3.78 65.71c25.39,441.81 326.8,825.02 750.34,953.9l73.6 22.38 -29.57 71.05c-103.99,249.93 -156.42,500.05 -156.42,745.97 0,75.39 4.91,150.36 14.79,224.82 37.22,280.94 107.7,526.24 175.51,762.48 76.79,267.43 146.85,512.44 146.77,745.35 -0.15,194.55 -48.16,380.65 -182.22,568.09 -134.09,187.4 -355.12,376.06 -701.5,571.53 -1338.5,755.63 -1546.73,1006.28 -1558.37,1020.54l-0.26 0.32 -71.29 98.71 14.54 10.5 14.76 -10.28 -14.76 10.28 14.59 10.51 71.05 -98.38 -14.59 -10.48 14.08 11.13c4.7,-6.36 211.11,-257.34 1547.89,-1011.57 349.22,-197.12 574.66,-388.55 713.06,-581.91 138.51,-193.25 189.05,-388.51 188.94,-588.99 -0.1,-240.16 -71.48,-487.83 -148.17,-755.26 -67.82,-236.28 -137.61,-479.53 -174.43,-757.32 -9.67,-72.88 -14.47,-146.26 -14.47,-220.07 0,-240.78 51.33,-486.08 153.66,-732.18l44.83 -107.65 -111.57 -33.95c-408.99,-124.38 -700.48,-494.95 -724.95,-921.61l-5.71 -99.53 -3105.85 0 -5.74 99.53c-24.46,426.66 -315.91,797.23 -724.92,921.61l-111.55 33.95 44.79 107.65c102.35,246.06 153.68,491.33 153.68,732.14 0,73.82 -4.82,147.23 -14.49,220.11 -36.8,277.79 -106.6,521.04 -174.41,757.32 -76.69,267.39 -148.08,515.1 -148.16,755.26 -0.12,200.48 50.42,395.7 188.92,588.99 138.44,193.36 363.85,384.79 713.08,581.91 1313.84,741.3 1535.75,996.4 1547.46,1011.07l13.91 -11.4 -14.76 10.28 83.58 119.87 14.84 -20.52 -14.59 -10.51z"/>
  <polygon class="fil0" points="3909.47,2576.66 6082.96,2576.66 6082.96,2470.04 3909.47,2470.04 "/>
  <path class="fil4 str1" d="M4998.76 8680.34l-72.75 -100.71c-13.21,-16.24 -232.08,-270.2 -1552.72,-1015.51 -1112.21,-627.72 -950.35,-1191.67 -745.4,-1905.7 21.74,-75.83 44.18,-153.92 65.81,-234.71 54.14,-202.01 87.8,-363.98 109.14,-525.08 41.65,-313.98 -5.61,-637.48 -140.41,-961.53l-37.17 -89.33 92.57 -28.19c416.27,-126.63 712.71,-503.5 737.65,-937.78l4.75 -82.58 3071.94 0 4.74 82.58c24.93,434.28 321.38,811.15 737.63,937.78l92.6 28.19 -37.18 89.33c-134.81,324.05 -182.05,647.55 -140.41,961.53 21.34,161.1 54.99,323.07 109.12,525.08 21.63,80.79 44.08,158.88 65.81,234.71 204.97,714.03 366.86,1277.98 -745.39,1905.7 -1303.16,735.44 -1533.51,992.44 -1552.05,1014.75l-68.28 101.47z"/>
  <path class="fil1" d="M3837.85 3564.73l-194.67 0 26.7 45.19c7.76,13 11.87,27.84 11.87,42.9l0 678.23c0,19.85 -16.2,36.06 -36.05,36.06l-76.91 0c-19.85,0 -35.83,-16.21 -35.83,-36.06l0 -678.23c0,-15.06 3.88,-29.9 11.64,-42.67l26.93 -45.42 -233.46 0 26.93 45.42c7.76,12.77 11.64,27.61 11.64,42.67l0 793.02c0,42.67 34.69,77.36 77.36,77.36l306.48 0c42.68,0 77.37,-34.69 77.37,-77.36l0 -793.02c0,-15.06 3.87,-29.9 11.63,-42.67l26.93 -45.42 -38.56 0 0 0zm793.13 65.04l38.57 -65.04 -233.23 0 25.33 42.68 -189.41 606.34 -189.41 -606.34 25.33 -42.68 -233.46 0 38.57 65.04 0 828.39 -38.57 65.04 233.46 0 -38.57 -65.04 0 -393.66 143.31 458.7 118.67 0 143.32 -458.7 0 393.66 -38.57 65.04 233.23 0 -38.57 -65.04 0 -828.39zm536.17 21.68c0,-14.15 3.87,-28.07 10.95,-40.39l27.61 -46.33 -538.34 0 27.62 46.33c7.3,12.32 10.95,26.24 10.95,40.39l0 785.03c0,14.15 -3.65,28.07 -10.95,40.39l-27.62 46.33 233.46 0 -27.62 -46.33c-7.3,-12.32 -10.95,-26.24 -10.95,-40.39l0 -317.43 148.79 -86.04 0 403.47c0,14.15 -3.88,28.07 -11.18,40.39l-27.39 46.33 233.23 0 -27.61 -46.33c-7.08,-12.32 -10.95,-26.24 -10.95,-40.39l0 -785.03zm-304.89 287.31l0 -217.93 148.79 0 0 131.9 -148.79 86.03zm685.42 -374.03l-343.68 0 28.07 47.01c6.85,11.87 10.5,25.33 10.5,39.03l0 786.4c0,13.69 -3.65,27.15 -10.5,39.02l-28.07 47.01 423.33 0c42.21,0 76.45,-34.23 76.45,-76.45l0 -805.57c0,-42.22 -34.24,-76.45 -76.45,-76.45l-79.65 0 0 0zm-36.28 802.38l-112.51 0 0 -646.28 112.51 0c20.08,0 36.28,16.2 36.28,36.28l0 573.71c0,20.08 -16.2,36.29 -36.28,36.29l0 0zm689.3 -802.38l-194.67 0 26.7 45.19c7.76,13 11.87,27.84 11.87,42.9l0 678.23c0,19.85 -16.2,36.06 -36.05,36.06l-76.91 0c-19.85,0 -35.83,-16.21 -35.83,-36.06l0 -678.23c0,-15.06 3.88,-29.9 11.64,-42.67l26.93 -45.42 -233.46 0 26.93 45.42c7.76,12.77 11.64,27.61 11.64,42.67l0 793.02c0,42.67 34.69,77.36 77.36,77.36l306.48 0c42.68,0 77.37,-34.69 77.37,-77.36l0 -793.02c0,-15.06 3.87,-29.9 11.63,-42.67l26.93 -45.42 -38.56 0 0 0zm457.67 0l-420.82 0 27.62 46.56c7.3,12.09 10.95,26.01 10.95,40.16l0 785.03c0,14.15 -3.65,28.07 -10.95,40.17l-27.62 46.55 233.46 0 -27.62 -46.55c-7.3,-12.1 -10.95,-26.02 -10.95,-40.17l0 -372.43 225.93 0c43.58,0 78.96,-35.37 78.96,-78.96l0 -341.4c0,-43.59 -35.38,-78.96 -78.96,-78.96l0 0zm-77.14 303.75c0,21.67 -17.8,39.25 -39.48,39.25l-109.54 0 0 -186.9 109.54 0c21.68,0 39.48,17.8 39.48,39.48l0 108.17z"/>
  <path class="fil5" d="M5313.69 6959.4l89.55 1.38c10.77,41.99 17.37,112.06 22.88,155.75 7.1,56.17 13.07,111.87 16.43,168.47l-92.92 -2.36 -35.94 -323.24zm-267.65 -42.97c3.87,-230.02 0.2,-477.61 0.2,-710.92 0,-62.88 -9,-85.66 14.97,-106.66 12.91,-11.31 13.63,-16.06 30.1,-27.37 110.68,-75.94 308.33,-83.72 441.67,-49.68 70.59,18.01 114.21,35.76 192.58,41.8 88.31,6.8 133.28,-5.47 215.43,-17.36l247.69 846.14c-41.59,3.87 -90.74,20.97 -139.25,24.95 -165.37,13.55 -268.85,-19.38 -433.35,-44.44 -221.18,-33.69 -362.86,-26.33 -570.04,43.54zm-942.09 -870.58c82.03,14.11 131.68,23.99 219.03,18.05 76.13,-5.18 124.59,-26.27 193.59,-42.53 153.64,-36.19 357.96,-29.81 473.42,80.75 19.25,18.44 10.4,75.96 10.4,107.52 0,230.76 -4.14,480.21 0.23,706.7 -211.26,-68.58 -342.06,-78.14 -570.42,-43.4 -91.41,13.91 -190.09,35.85 -280.82,44.11 -170.96,15.56 -171.21,-10.43 -291.91,-25.12l246.48 -846.08zm-73.65 102.23l-228.36 778.73c65.59,25.57 246.16,28.58 320.55,25.74 98.69,-3.78 203.55,-24.17 302.05,-39.78 441.7,-70.03 428.71,37.47 598.55,37.14 84.33,-0.17 191.36,-52.3 288.23,-59.7 193,-14.75 414.83,51.5 616.5,62.47 85.79,4.67 236.03,-1.18 317.79,-25.98l-228.28 -778.64 100.55 20.23 239.05 838.01c-89.87,39.06 -352.94,53.65 -458.1,48.1 -75.43,-3.97 -151.03,-20.37 -225.1,-32.79l-225.57 -31.08 -4.83 -26.46c21.9,1.85 153.04,11.64 174.61,8.87 19.29,-2.47 16.22,-7.43 17.48,-8.97 -42.35,-2.56 -94.19,-12.87 -138.68,-17.68 -123.84,-13.4 -232.38,-16.6 -352.33,21 -20.25,6.34 -40.52,10.26 -52.05,24.81 52.29,-7.32 131.48,-36.19 183.26,-30.52l4.52 37.13c-26.83,17.54 -139.52,47.24 -179.04,53.71 -179.22,29.32 -264.38,-46.89 -387.36,-59.47 -64.06,-6.55 -147.2,1.17 -211.73,9.31 -135.07,17.03 -268.39,52.25 -404.26,53.83 -93.02,1.09 -331.72,-14.78 -408.96,-50.32l239.17 -837 102.34 -20.69zm1261.62 974.57c-0.54,22.13 2.32,34.66 4.23,57.48 1.22,14.57 3.73,38.63 6.16,55.81l10.01 113.93 32.93 4.83c0.11,-23.64 4.25,-25.2 4.25,-46.14 26.2,6.1 34.19,4.13 61.97,4.13 3.94,16.92 4.12,19.4 4.12,41.31l24.8 0c0,-22.91 -3.74,-27.47 -4.14,-45.44l16.53 0c4.26,51.23 11.54,41.38 28.92,33.05 0,-53.81 -16.53,-172.42 -16.53,-228.97l-1.82 -16.31c118.75,1.35 390.37,54.16 538.71,63.34 94.62,5.86 193.26,-1.65 285.77,-19.18 121.8,-23.08 191.86,-61.58 232.2,-70.49 -6.02,-37.51 -26.38,-88.09 -37.19,-126.22 -55.27,-194.98 -127.66,-413.45 -186.87,-610.77l-55.58 -183.71c-7.68,-24.64 -18.72,-33.27 -35.72,-45.5 -28.04,1.16 -63.05,6.97 -91.66,10.15 -50.26,5.58 -39.07,4.22 -66.93,-22.54 -31.01,-29.78 -70.56,-64.22 -97.55,-95.88 -39.05,10.76 -56.66,23.28 -108.88,29.59 -169.16,20.46 -363.76,-97.89 -617.7,-42.39 -37.46,8.18 -71.87,20.43 -105.48,35 -123.19,53.38 -62.55,53.93 -189.42,-1.43 -33.1,-14.45 -68.52,-26.28 -105.95,-34.34 -251.51,-54.15 -446.5,64.25 -617.33,43.07 -72.2,-8.95 -76.53,-22.56 -106.05,-29.37 -12.88,8.13 -27.11,28.04 -48.96,49.32 -81.96,79.87 -61.32,74.75 -119.07,68.58 -28.09,-3 -60.86,-9.14 -88.11,-9.52 -39.55,13.66 -77.35,185.53 -92.28,232.26 -25.98,81.28 -49.52,162.46 -74.55,243.75 -25.46,82.66 -49.47,162.3 -74.41,243.74l-73.62 245.88c23.42,5.78 65.41,25.3 93.64,34.92 33.02,11.25 66.27,19.47 100.57,27.82 73.54,17.89 152.67,25.43 228.06,28.91 152.52,7.04 314.68,-31.42 465.95,-47.43 195.99,-20.74 263.43,-38.88 456.45,15.98 85.1,24.19 125.75,42.08 219.15,22.93 55.46,-11.36 150.94,-48.98 199.69,-50.35l1.69 20.2z"/>
  <path class="fil6" d="M5535.6 6768.52c-17.47,4.9 -66.81,-4.77 -91.04,-6.18 -35.38,-2.07 -68.11,-0.41 -103.3,2.33 -30.94,2.41 -60.98,5.35 -91.54,9.83 -13.54,1.98 -93.89,20.72 -78.55,-3.29 13.54,-21.21 239.31,-30.18 281.77,-27.59 50.97,3.12 80.51,-0.33 82.66,24.9zm116.1 -17.87c13,-7.09 122.17,21.09 167.69,27.03 91.39,11.94 91.15,6.99 166.71,5.08 19.49,-0.5 11.81,-4.87 22.69,6.41 -4.93,17.49 -14.3,13.47 -35.39,14.45 -54.19,2.53 -98.89,1.15 -153.46,-6.26 -31.14,-4.24 -61.77,-9.25 -92.4,-15.32l-64 -15.05c-18.18,-7.43 -9.35,-2.66 -11.84,-16.34zm-3.83 -28.74c11.15,-17.33 27.84,-3.48 79.98,6.51 30.09,5.76 61.59,10.07 92.92,13.63 51.31,5.83 101.22,8.06 152.63,2.87 17.41,-1.77 28.52,-5.45 31.56,11.15 -5.85,6.14 0.75,2.02 -8.26,5.48 -15.07,5.79 -69.63,5.5 -85.38,5.35 -67.79,-0.66 -120.57,-7.21 -186.71,-19.57l-61.39 -12.59c-20.69,-6.65 -10.47,2.51 -15.35,-12.83zm-427.61 12.4c8.58,-11.68 11.16,-10.08 29.57,-13.1 86.37,-14.17 166.15,-14.19 252.86,-14.62 22.72,-0.11 28.11,-2.79 28.68,15.32 -15.58,8.98 -136.08,5.33 -165.33,6.51l-117.37 13.35c-19.61,4.05 -19.96,7.67 -28.41,-7.46zm422.84 -49.58c15.52,-9.32 61.45,4.76 82.4,7.8 70.51,10.23 114.44,12.58 185.93,10.56 24.09,-0.68 69.62,-11.59 89,-4.15 3.98,22.99 -20.54,20.33 -76.48,23.37 -82.82,4.51 -166.13,-3.51 -247.7,-17.81 -18.75,-3.29 -34.12,-1.96 -33.15,-19.77zm-478.16 9.71c2.04,-21.46 52.84,-22.92 76.01,-26.77 31.88,-5.28 63.52,-10.45 95.63,-13.8l152.72 -5.44c6.29,0.16 15.72,0.17 21.8,1.1 20.28,3.11 13.64,0.11 21.75,10.42 -8.2,17.06 -12.84,11.07 -34.95,8.67 -127.24,-13.82 -305.23,33.18 -325.48,28.7l-7.48 -2.88zm470.96 -66.65c15.73,-10.75 55.43,2.61 78.68,5.93 53.2,7.62 135.84,12.69 188.63,9.03 21.51,-1.48 71.75,-12.58 87.2,-3.46 -2.59,22.54 -42.22,20.82 -80.38,22.78 -33.91,1.74 -67.9,1.61 -101.82,-0.07l-139.61 -15.86c-42.8,-6.91 -30.16,-4.09 -32.7,-18.35zm-162.46 -20.45c-81.34,0 -153.87,2.87 -233.23,17.85 -20.5,3.87 -48.06,18.04 -63.62,10.08 6.78,-46.88 271.34,-48.15 300.98,-48.18 23.84,-0.03 46.95,-5.99 52.24,14.12 -12.47,11.5 -34.57,6.13 -56.37,6.13zm158.03 -38.28c10.53,-11.56 12.6,-7.19 31.25,-3.53 13.89,2.73 28.24,4.8 42.54,7.01 57.24,8.88 132.06,13.49 189.67,9.48 15.29,-1.06 30.69,-2.32 45.68,-4.91 20.5,-3.55 27.72,-9.83 35.38,8.47 -0.8,0.86 -2.19,0.75 -2.71,2.24l-12.44 6.43c-52.59,16.17 -280.63,3.58 -317.7,-12.78 -17.35,-7.65 -8.46,-8.35 -11.67,-12.41zm-457.51 -4.13c5.4,-20.17 25.89,-16.51 73.85,-22.9 29.74,-3.95 59.29,-7.32 89.29,-9.98l140.6 -3.58c20.55,0.9 29.96,-3.09 32.99,15.8 -14.43,10.57 -65.22,2.17 -86.83,2.48 -57.05,0.82 -151.56,9.97 -209.04,19.64 -37.86,6.37 -27.86,7.7 -40.86,-1.46zm443.55 -53.71c7.23,-20.97 16.3,-8.87 71.71,-0.85 69.81,10.09 165.27,17 234.83,5.43 38.88,-6.47 30.29,-5.95 38.49,3.69 -8.11,18.77 -43.67,18.01 -76.75,19.7 -50.64,2.6 -244.2,1.35 -268.28,-27.97zm-193.65 -22.78c-78.37,-0.03 -142.25,3 -217.72,20.52 -0.35,0.08 -13.37,2.61 -14.13,2.62l-14.61 -2.62c-1.97,-20.29 16.73,-18.78 39.77,-23.27 89.37,-17.43 167.22,-18.33 256.4,-15.56 21.56,0.67 29.71,-2.88 39.49,9.06 -8.9,19.66 -33.31,9.28 -89.2,9.25zm176.37 -30.92c10.77,-19.88 17.32,-7.76 71.26,-0.02 60.5,8.68 120.7,14.23 182.05,9.94 14.94,-1.04 31.83,-2.84 46.59,-5.29 21.31,-3.54 25.3,-9.36 32.41,7.76 -11.16,15.62 -51.6,14.67 -74.76,16.76 -51.49,4.65 -196.28,-4.86 -241.85,-18.78 -18.94,-5.79 -7.28,1.69 -15.7,-10.37zm-437.58 -4.14c5.98,-25.77 126.83,-32.96 152.43,-35.25 30.29,-2.69 61.5,-4.33 92.25,-3.75 15.51,0.29 29.85,1.54 45.23,2.94 22.03,2 26.99,-1.14 32.59,16.58 -9.58,7.24 -110.39,-1.22 -160.11,3.05 -27.51,2.36 -54.04,5.42 -81.51,9.62 -22.89,3.5 -63.96,19.56 -80.88,6.81zm537.96 -36.75c-22.22,-3.12 -54.47,0.16 -57.12,-21.08 15.96,-11.39 105.25,7.39 131.37,9.42 28.22,2.2 125.29,1.28 139.55,7.66 -1.13,21.81 -15.45,16.52 -65.03,15.31l-148.77 -11.31zm-534.57 -24.83c-3.58,-27.55 117.38,-32.16 137.88,-33.55 23.91,-1.62 161.69,-7.54 171.08,7.46 13.41,21.45 -51.52,12.12 -67.57,11.61 -58.08,-1.81 -151.21,-1.01 -207.35,13.53 -15.96,4.14 -14.92,5.74 -27.27,3.77l-6.77 -2.82zm708.5 -17.49c-54.54,1.06 -247.32,-7.72 -272.04,-32.47 2.34,-20.62 45.4,-5.73 63.53,-3 25.72,3.89 51.94,7.42 77.81,9.98 28.47,2.81 150.24,4.57 159.49,8.16 -2.84,18.88 -6.12,16.88 -28.79,17.33zm-705.16 -44.86c6.7,-14.16 -5.28,-6.35 15.09,-12.4 30.82,-9.17 188.27,-16.33 226.54,-14.48 32.36,1.58 59.33,0.4 66.51,18.61 -9.82,12.89 -13.54,7.41 -33.09,4.09 -35.4,-6.03 -88.54,-3.92 -123.85,-2.28 -26.37,1.23 -51.75,3.39 -78.33,6.25 -14.11,1.52 -27.09,3.49 -41.27,5.89 -38.46,6.49 -27.76,-0.73 -31.6,-5.68zm480.27 -18.65c-38.16,-5.94 -41.75,-5.11 -43.88,-23.6 0.47,-0.33 204.15,16.63 212.11,24.18 -0.67,20.56 -28.47,12.57 -50.11,11.39l-118.12 -11.97zm-471.97 -27.95c16.6,-38.42 187.97,-32.15 233.87,-27.83 60.85,5.73 62.72,0.02 65.15,21.04 -14.39,10.58 -54.75,-1.11 -77.11,-2.59 -57.27,-3.79 -105.77,-5.15 -163.02,5.1 -45.75,8.2 -45.65,19.07 -58.89,4.28zm609.73 -34.98c49.16,-0.48 86.94,-5.74 91.37,21.12 -10.56,3.7 -217.22,-3.57 -245.94,-7.05 -14.67,-1.78 -65.04,-0.65 -62.52,-18.85 1.79,-12.97 22.96,-7.41 32.09,-5.88 91.81,15.47 101.7,11.47 185,10.66zm-630.13 -6.56c1.99,-21.15 5.93,-22.25 61.46,-34.43 53.77,-11.79 117.08,-15.67 172.18,-10.5 46.92,4.41 67.7,-0.17 70.75,21.52 -16.64,11.13 -55.98,-1.04 -77.65,-2.3 -141.16,-8.24 -205.59,28.02 -226.74,25.71zm539.08 -28.6c-45.81,-1.69 -38.86,-0.58 -40.42,-15.46 10.92,-9.05 74.12,-2.04 106.69,-2.07 56.5,-0.06 90.27,-10.55 98.08,10.47 -7.28,8.84 -2.13,5.96 -19.35,7.19l-145 -0.13zm-537.28 -25.96c2.65,-22.08 4.85,-17.07 64.15,-28.2 53.31,-10 118.16,-16.22 171.88,-10.8 64.33,6.49 66.43,3.45 68.02,27.28 -21.48,1.92 -49.76,-6.54 -74.38,-8.1 -26.79,-1.69 -55.21,-1.57 -81.52,0.19 -48.97,3.27 -135.69,25.52 -148.15,19.63zm454.34 -34.42c-44.02,-6.52 -58.93,-6.01 -61.27,-25.32 13.74,-11.18 14.73,-4.88 32.89,-0.3 58.8,14.84 129.61,14.96 189.98,13.64 21.84,-0.48 58.62,-9.81 74.64,3.19 -2.92,17 -5.24,13.83 -28.96,14.48 -71.73,1.96 -135.56,4.94 -207.28,-5.69zm-451.38 -4.66c8.74,-34.14 192.05,-41.25 224.65,-39.79 31.29,1.41 62.25,1.39 70.57,19.13 -9.63,12.32 -13.75,7.95 -33.51,4.65 -39.55,-6.6 -78.19,-4.96 -117.84,-1.89 -54.24,4.22 -129.62,28.03 -143.87,17.9zm348.58 -53.55c21.11,1.84 16.67,23.89 21.93,73.77l62.43 618.26c-23.39,4.89 -14.58,-8.09 -22.26,-68.39 -3.75,-29.54 -6.76,-59.95 -9.82,-89.81l-39.07 -357.38c-3.18,-30.42 -24.34,-158.25 -13.21,-176.45zm-464.58 822.31c207.18,-69.87 348.86,-77.23 570.04,-43.54 164.5,25.06 267.98,57.99 433.35,44.44 48.51,-3.98 97.66,-21.08 139.25,-24.95l-247.69 -846.14c-82.15,11.89 -127.12,24.16 -215.43,17.36 -78.37,-6.04 -121.99,-23.79 -192.58,-41.8 -133.34,-34.04 -330.99,-26.26 -441.67,49.68 -16.47,11.31 -17.19,16.06 -30.1,27.37 -23.97,21 -14.97,43.78 -14.97,106.66 0,233.31 3.67,480.9 -0.2,710.92z"/>
  <path class="fil6" d="M4511.21 6768.01c1.49,-20.4 10.13,-17.57 33.45,-20.24 16.41,-1.89 32.16,-3.11 48.65,-4.13 37.54,-2.31 68.86,-1.39 106.27,0.87 32.25,1.95 64.71,6.01 96.6,10.18 15.51,2.03 31.17,4.06 46.44,6.4 22.62,3.45 31.98,0.53 34.42,17.83 -15.57,12.5 -63.67,-2.12 -87.75,-5.55 -55.28,-7.88 -136.84,-14.42 -191.77,-10.75 -23.24,1.56 -69.87,11.22 -86.31,5.39zm-474.13 24.14c9.58,-14.41 2.21,-9.97 23.1,-9.65 81.11,1.27 62.73,8.19 168.64,-5.38 31.36,-4.02 152.4,-33.58 165.97,-26.95 -2.82,20.35 -11.56,17.02 -32.09,21.74 -56.08,12.93 -296.27,58.3 -325.62,20.24zm361.63 -70.24c-4.69,15.66 5.79,6.32 -15.58,12.97l-65.11 13.4c-82.34,15.25 -154.18,21.57 -237.76,17.46 -37.67,-1.85 -37.24,-1.18 -39.1,-11.83 -2.97,-16.98 21.18,-9.83 36.02,-8.45 83.34,7.71 205.68,-5.97 286.32,-26.97 20.15,-5.24 26.28,-11.2 35.21,3.42zm285.44 7.11c-34.13,-1.13 -150.08,0.5 -170.87,-4.49 2.41,-25.08 20.59,-17.79 47.14,-17.79 65.3,0 150.66,0.81 214.65,10.98 33.66,5.35 41.09,2.47 51.42,16.59 -10.81,19.16 -10.85,8.1 -64.46,1.49 -25.24,-3.12 -52.55,-5.94 -77.88,-6.78zm-589.91 -28.5c15.13,1.68 29.32,2.25 44.62,2.68 69.24,1.93 117.12,-1.51 185.68,-11.2 22.56,-3.18 66.41,-20.62 81.19,-3.13 -23.09,34.21 -271.22,37 -332.91,28.99 -23.43,-3.04 -29.29,0.68 -27.51,-18.59l48.93 1.25zm787.32 -7.52c-15.81,15.17 -64.6,-4.07 -86.5,-7.52 -28.99,-4.57 -57.92,-9.11 -87.11,-12.15 -31.95,-3.31 -65.86,-6.29 -97.95,-6.67 -46.45,-0.54 -81.47,9.75 -95.66,-2.58 3.14,-12.42 -1.72,-10.04 16.83,-14.06l74.7 -2.26c90.32,0.98 154.22,12.1 240.95,27.05 20.39,3.51 30.28,1.7 34.74,18.19zm-825.35 -53.71c15.15,-9.16 65.63,1.98 86.81,3.44 34.81,2.39 64.78,1.45 99.46,-0.7 30.23,-1.88 59.31,-4.09 89.44,-8.4 23.36,-3.36 62.57,-16.22 78.79,-6.37 -1.33,19.77 4.04,10.25 -11.92,15.44l-67.52 10.76c-64.34,8.17 -128.91,12.25 -193.57,8.93 -37.32,-1.92 -78.91,-0.67 -81.49,-23.1zm524.87 -31.95c-26.25,0 -51.72,5.8 -64.29,-6.7 1.13,-19.45 38.44,-13.54 56.03,-13.54l170.83 8.66c26.47,3.13 122.21,9.66 126.25,39.99 -15.55,7.19 -42.82,-6.06 -63.84,-10.46 -69.08,-14.47 -154.65,-17.95 -224.98,-17.95zm-510.91 -25.89c5.59,-6.93 -7.08,-7.79 17.19,-7.61l68.08 8.42c56.93,3.47 129.19,-0.92 185.55,-9.66 43.86,-6.8 62.01,-17.32 74.18,-3.54 -5.18,15.15 -12.47,12.97 -32.47,16.69 -84.48,15.75 -190.88,22.11 -275.88,11.73 -3.9,-0.48 -19.14,-2.29 -21.55,-3.07 -21.61,-6.96 -8.36,3.16 -15.1,-12.96zm768.43 -13.87c-13.01,-2.19 -25.75,-3.87 -39.01,-5.7 -61.69,-8.47 -165.55,-19.39 -226.88,-13.99 -20.8,1.83 -27.61,8.45 -38.12,-7.75 4.79,-10.27 -9.06,-10.1 38.23,-11.88 54.93,-2.07 290.94,8.06 298.98,30.88 6.68,18.94 -21.31,10.44 -33.2,8.44zm-754.42 -48.09c13.2,-15.41 34.07,-1.66 83.65,0.98 65.91,3.5 124.15,-0.64 189.23,-10.05 56.93,-8.23 64.71,-20.52 72.17,0.8 -22.16,27.05 -224.9,30.27 -269.07,27.86 -33.26,-1.81 -67.77,-0.78 -75.98,-19.59zm678.35 -24.31c-41.97,-4.56 -81.13,-6.77 -123.61,-6.74 -27.02,0.01 -88.84,5.52 -103.4,-2.01 -2.19,-20.87 14.72,-15.71 37.15,-16.3 75.75,-1.99 110.12,-2.83 193.36,6.06 19.74,2.11 40.48,5.17 59.63,8.75 49.12,9.19 42.69,6.35 43.86,22.15 -12.53,10.34 -65.85,-7.44 -106.99,-11.91zm-648.38 -25.27c7.1,-16.94 11.05,-11.29 31.98,-7.79 70.08,11.69 158.53,5.54 228.66,-4.53 62.69,-9 66.86,-22.21 71.15,6.24 -52.17,13.76 -303.27,45.16 -331.79,6.08zm447.72 -41.31c21.1,-24.2 133.18,-13.45 170.57,-10.11 25.97,2.31 145.16,8.88 151.59,34.89 -17.11,12.57 -57.94,-3.33 -81.28,-6.87 -56.69,-8.61 -114.74,-13.96 -172.26,-11.79 -49.99,1.89 -59.49,12.57 -68.62,-6.12zm-429.71 -15.52c14.88,-7.54 110.11,-5.74 139.1,-8.06 26.32,-2.11 115.64,-20.75 131.89,-9.47 -2.75,22.07 -40.5,19.05 -60.77,21.49l-149.64 11.01c-43.63,0.95 -59.26,5.87 -60.58,-14.97zm734.44 -17.42c-3,-0.03 -70.26,-19.1 -178.11,-19.1 -30.73,0 -103.23,7.82 -118.88,-1.68 0.29,-19.18 -3.05,-13.47 15.48,-15.53 52.56,-5.85 164.82,-2.59 214.53,3.41 19.42,2.34 83.35,5.59 81.06,29.67 -1.07,0.65 -2.6,1.13 -3.51,1.34l-10.57 1.89zm-422.43 -53.82c-22.59,23.39 -302.88,47.72 -300.15,20.89 1.44,-14.19 19.14,-8.46 36.2,-7.75 55.98,2.33 144.21,-7.75 200,-16.07 53.53,-8 56.47,-15.94 63.95,2.93zm124.96 -20.66c5.63,-14.19 10.22,-12.65 28.93,-15.27 62.38,-8.71 143.3,-2.74 205.86,4l70.01 13.28c0.51,-0.86 1.88,1.32 2.69,2.12 -8.58,22.39 -50.76,6.4 -72.55,3.96 -46.21,-5.19 -120.14,-10.06 -165.31,-7.24 -51.11,3.19 -58.02,14.12 -69.63,-0.85zm-341.64 2.76c1.66,-20.64 -6.35,-17.11 18.52,-19.69l90.18 -5.72c24.61,-2.06 89.88,-16.1 104.76,-11.75 -1.81,15.13 -1.05,14.54 -15.82,18.94 -35.49,10.57 -168.5,20.22 -197.64,18.22zm432.27 -71.19c52.1,-2.39 107.8,-2.4 159.24,7.38 12.72,2.42 74.9,17.56 42.6,28.03 -12.2,3.95 -56.01,-10.89 -73.98,-13.12 -94.22,-11.7 -201.59,6.01 -206.87,5.1 -7.29,-1.26 -9.49,6.53 -10.52,-8.39 -0.74,-10.78 1.36,-6.63 8.5,-9.58 9.03,-3.73 68.64,-8.86 81.03,-9.42zm-491.74 15.75c2.45,-18.76 5.47,-17.53 27.15,-19.06l125.64 -0.36c54.97,0.47 141.26,-19.52 155.78,-9.83 -1.52,20.13 -13.01,15.84 -61.35,22.15 -47.36,6.17 -233.22,13.03 -247.22,7.1zm416.93 -50.6c2.33,-17.46 8.42,-15.34 28.74,-17.5 13.73,-1.45 27.78,-2.67 41.61,-3.97 52.84,-4.96 186.06,2.99 223.39,25.29 9.34,5.58 6.43,1.12 10.96,12.71 -14.38,14.32 -44.91,-4.04 -68.59,-9.19 -24.31,-5.28 -50.37,-8.48 -76.16,-9.89 -56.25,-3.08 -147.43,11.08 -159.95,2.55zm-383.79 -5.32c-18.13,-2.51 -8.39,1.36 -15.27,-7.57 2.87,-18.92 62.66,-9.86 101.87,-9.84 53.8,0.03 93.9,-11.27 104.05,6.21 -6.49,12.25 4.33,8.02 -19.11,10.86l-84.94 2.38c-19.41,0.03 -38.52,-0.73 -57.9,-1.3 -7.27,-0.21 -22.45,0.12 -28.7,-0.74zm686.6 -31.86c-13.16,19.3 -23.09,4.11 -71.58,-4.02 -25.61,-4.28 -54.65,-8.36 -80.7,-9.8 -43.43,-2.4 -82.75,-1.89 -124.99,6.26 -39.28,7.58 -38.56,-14.24 0.27,-20.35 75.84,-11.92 136.82,-7.88 212.33,5.64 32.3,5.77 57.95,6.29 64.67,22.27zm-691.53 -33.05c10.34,-19.33 53.52,-7.81 75,-7.33 27.35,0.61 55.32,0.75 82.65,-0.14 59.88,-1.96 128.16,-23.16 140.56,-13.19 -2.02,15.69 -4.12,13.46 -27.25,18.95 -62.18,14.74 -136.35,14.56 -200.16,13.35 -34.49,-0.65 -60.42,4.54 -70.8,-11.64zm393.05 -20.66c22.41,-45.72 287.45,-5.8 294.51,15.05 7.96,23.49 -49.91,1.62 -64.78,-1.37 -48.92,-9.82 -109.62,-15.72 -159.38,-12.91 -48.29,2.74 -57.51,15.15 -70.35,-0.77zm-137.7 658.7c-0.53,-1.08 -0.91,-2.53 -1.11,-3.42 -4.22,-19.91 3.46,-64.7 5.95,-85.36l57.58 -528.8c5.32,-48.59 0.8,-71.29 21.64,-74.21 12.08,18.43 -9.61,147 -12.88,176.79l-49 447.43c-1.74,15.08 -3.02,30.13 -4.53,45.23 -2.21,22.09 1.15,27.6 -17.65,22.34zm-347.63 -739.86l-246.48 846.08c120.7,14.69 120.95,40.68 291.91,25.12 90.73,-8.26 189.41,-30.2 280.82,-44.11 228.36,-34.74 359.16,-25.18 570.42,43.4 -4.37,-226.49 -0.23,-475.94 -0.23,-706.7 0,-31.56 8.85,-89.08 -10.4,-107.52 -115.46,-110.56 -319.78,-116.94 -473.42,-80.75 -69,16.26 -117.46,37.35 -193.59,42.53 -87.35,5.94 -137,-3.94 -219.03,-18.05z"/>
  <path class="fil6" d="M6098.13 6271.15c32.9,108.55 193.88,649.54 192.19,672.39 -23.02,-2.1 -14.27,6.27 -21.97,-17.02l-189.52 -649.16c-4.93,-16.11 -8.71,-31.92 -13.71,-48.05 -4.64,-14.96 -11.31,-26.92 -9.44,-39.92 1.36,-9.45 -0.59,-4 4.4,-10.97 19.75,6.32 26.85,55.75 38.05,92.73zm-2341.92 672.29c-1.83,-29.52 139.85,-486.96 166.39,-582.67 8.87,-31.96 18.86,-64.3 27.58,-95.84 13.79,-49.87 16.71,-85.16 41.55,-85.69 2.58,20.76 -93.52,337.25 -108.54,385.93l-99.41 338.74c-14.33,50.39 -2.74,37.91 -27.57,39.53zm171.75 -774.67l-239.17 837c77.24,35.54 315.94,51.41 408.96,50.32 135.87,-1.58 269.19,-36.8 404.26,-53.83 64.53,-8.14 147.67,-15.86 211.73,-9.31 122.98,12.58 208.14,88.79 387.36,59.47 39.52,-6.47 152.21,-36.17 179.04,-53.71l-4.52 -37.13c-51.78,-5.67 -130.97,23.2 -183.26,30.52 11.53,-14.55 31.8,-18.47 52.05,-24.81 119.95,-37.6 228.49,-34.4 352.33,-21 44.49,4.81 96.33,15.12 138.68,17.68 -1.26,1.54 1.81,6.5 -17.48,8.97 -21.57,2.77 -152.71,-7.02 -174.61,-8.87l4.83 26.46 225.57 31.08c74.07,12.42 149.67,28.82 225.1,32.79 105.16,5.55 368.23,-9.04 458.1,-48.1l-239.05 -838.01 -100.55 -20.23 228.28 778.64c-81.76,24.8 -232,30.65 -317.79,25.98 -201.67,-10.97 -423.5,-77.22 -616.5,-62.47 -96.87,7.4 -203.9,59.53 -288.23,59.7 -169.84,0.33 -156.85,-107.17 -598.55,-37.14 -98.5,15.61 -203.36,36 -302.05,39.78 -74.39,2.84 -254.96,-0.17 -320.55,-25.74l228.36 -778.73 -102.34 20.69z"/>
  <path class="fil6" d="M5426.12 7116.53c-5.51,-43.69 -12.11,-113.76 -22.88,-155.75l-89.55 -1.38 35.94 323.24 92.92 2.36c-3.36,-56.6 -9.33,-112.3 -16.43,-168.47z"/>
  <path class="fil5" d="M6290.32 6943.54c1.69,-22.85 -159.29,-563.84 -192.19,-672.39 -11.2,-36.98 -18.3,-86.41 -38.05,-92.73 -4.99,6.97 -3.04,1.52 -4.4,10.97 -1.87,13 4.8,24.96 9.44,39.92 5,16.13 8.78,31.94 13.71,48.05l189.52 649.16c7.7,23.29 -1.05,14.92 21.97,17.02z"/>
  <path class="fil5" d="M3756.21 6943.44c24.83,-1.62 13.24,10.86 27.57,-39.53l99.41 -338.74c15.02,-48.68 111.12,-365.17 108.54,-385.93 -24.84,0.53 -27.76,35.82 -41.55,85.69 -8.72,31.54 -18.71,63.88 -27.58,95.84 -26.54,95.71 -168.22,553.15 -166.39,582.67z"/>
  <path class="fil5" d="M4451.58 6785.71c18.8,5.26 15.44,-0.25 17.65,-22.34 1.51,-15.1 2.79,-30.15 4.53,-45.23l49 -447.43c3.27,-29.79 24.96,-158.36 12.88,-176.79 -20.84,2.92 -16.32,25.62 -21.64,74.21l-57.58 528.8c-2.49,20.66 -10.17,65.45 -5.95,85.36 0.2,0.89 0.58,2.34 1.11,3.42z"/>
  <path class="fil5" d="M5572.72 6717.76c7.68,60.3 -1.13,73.28 22.26,68.39l-62.43 -618.26c-5.26,-49.88 -0.82,-71.93 -21.93,-73.77 -11.13,18.2 10.03,146.03 13.21,176.45l39.07 357.38c3.06,29.86 6.07,60.27 9.82,89.81z"/>
  <path class="fil5" d="M5535.6 6768.52c-2.15,-25.23 -31.69,-21.78 -82.66,-24.9 -42.46,-2.59 -268.23,6.38 -281.77,27.59 -15.34,24.01 65.01,5.27 78.55,3.29 30.56,-4.48 60.6,-7.42 91.54,-9.83 35.19,-2.74 67.92,-4.4 103.3,-2.33 24.23,1.41 73.57,11.08 91.04,6.18z"/>
  <path class="fil5" d="M4511.21 6768.01c16.44,5.83 63.07,-3.83 86.31,-5.39 54.93,-3.67 136.49,2.87 191.77,10.75 24.08,3.43 72.18,18.05 87.75,5.55 -2.44,-17.3 -11.8,-14.38 -34.42,-17.83 -15.27,-2.34 -30.93,-4.37 -46.44,-6.4 -31.89,-4.17 -64.35,-8.23 -96.6,-10.18 -37.41,-2.26 -68.73,-3.18 -106.27,-0.87 -16.49,1.02 -32.24,2.24 -48.65,4.13 -23.32,2.67 -31.96,-0.16 -33.45,20.24z"/>
  <path class="fil5" d="M4037.08 6792.15c29.35,38.06 269.54,-7.31 325.62,-20.24 20.53,-4.72 29.27,-1.39 32.09,-21.74 -13.57,-6.63 -134.61,22.93 -165.97,26.95 -105.91,13.57 -87.53,6.65 -168.64,5.38 -20.89,-0.32 -13.52,-4.76 -23.1,9.65z"/>
  <path class="fil5" d="M5725.5 6692.53c-20.95,-3.04 -66.88,-17.12 -82.4,-7.8 -0.97,17.81 14.4,16.48 33.15,19.77 81.57,14.3 164.88,22.32 247.7,17.81 55.94,-3.04 80.46,-0.38 76.48,-23.37 -19.38,-7.44 -64.91,3.47 -89,4.15 -71.49,2.02 -115.42,-0.33 -185.93,-10.56z"/>
  <path class="fil5" d="M4514.34 6664.08c14.19,12.33 49.21,2.04 95.66,2.58 32.09,0.38 66,3.36 97.95,6.67 29.19,3.04 58.12,7.58 87.11,12.15 21.9,3.45 70.69,22.69 86.5,7.52 -4.46,-16.49 -14.35,-14.68 -34.74,-18.19 -86.73,-14.95 -150.63,-26.07 -240.95,-27.05l-74.7 2.26c-18.55,4.02 -13.69,1.64 -16.83,14.06z"/>
  <path class="fil5" d="M5819.39 6777.68c-45.52,-5.94 -154.69,-34.12 -167.69,-27.03 2.49,13.68 -6.34,8.91 11.84,16.34l64 15.05c30.63,6.07 61.26,11.08 92.4,15.32 54.57,7.41 99.27,8.79 153.46,6.26 21.09,-0.98 30.46,3.04 35.39,-14.45 -10.88,-11.28 -3.2,-6.91 -22.69,-6.41 -75.56,1.91 -75.32,6.86 -166.71,-5.08z"/>
  <path class="fil5" d="M5473.44 6607.34c21.8,0 43.9,5.37 56.37,-6.13 -5.29,-20.11 -28.4,-14.15 -52.24,-14.12 -29.64,0.03 -294.2,1.3 -300.98,48.18 15.56,7.96 43.12,-6.21 63.62,-10.08 79.36,-14.98 151.89,-17.85 233.23,-17.85z"/>
  <path class="fil5" d="M4056.21 6639.29c2.58,22.43 44.17,21.18 81.49,23.1 64.66,3.32 129.23,-0.76 193.57,-8.93l67.52 -10.76c15.96,-5.19 10.59,4.33 11.92,-15.44 -16.22,-9.85 -55.43,3.01 -78.79,6.37 -30.13,4.31 -59.21,6.52 -89.44,8.4 -34.68,2.15 -64.65,3.09 -99.46,0.7 -21.18,-1.46 -71.66,-12.6 -86.81,-3.44z"/>
  <path class="fil5" d="M4398.71 6721.91c-8.93,-14.62 -15.06,-8.66 -35.21,-3.42 -80.64,21 -202.98,34.68 -286.32,26.97 -14.84,-1.38 -38.99,-8.53 -36.02,8.45 1.86,10.65 1.43,9.98 39.1,11.83 83.58,4.11 155.42,-2.21 237.76,-17.46l65.11 -13.4c21.37,-6.65 10.89,2.69 15.58,-12.97z"/>
  <path class="fil5" d="M5727.85 6728.42c-52.14,-9.99 -68.83,-23.84 -79.98,-6.51 4.88,15.34 -5.34,6.18 15.35,12.83l61.39 12.59c66.14,12.36 118.92,18.91 186.71,19.57 15.75,0.15 70.31,0.44 85.38,-5.35 9.01,-3.46 2.41,0.66 8.26,-5.48 -3.04,-16.6 -14.15,-12.92 -31.56,-11.15 -51.41,5.19 -101.32,2.96 -152.63,-2.87 -31.33,-3.56 -62.83,-7.87 -92.92,-13.63z"/>
  <path class="fil5" d="M5172.42 6697.32c20.25,4.48 198.24,-42.52 325.48,-28.7 22.11,2.4 26.75,8.39 34.95,-8.67 -8.11,-10.31 -1.47,-7.31 -21.75,-10.42 -6.08,-0.93 -15.51,-0.94 -21.8,-1.1l-152.72 5.44c-32.11,3.35 -63.75,8.52 -95.63,13.8 -23.17,3.85 -73.97,5.31 -76.01,26.77l7.48 2.88z"/>
  <path class="fil5" d="M5689.22 6510.37c-55.41,-8.02 -64.48,-20.12 -71.71,0.85 24.08,29.32 217.64,30.57 268.28,27.97 33.08,-1.69 68.64,-0.93 76.75,-19.7 -8.2,-9.64 0.39,-10.16 -38.49,-3.69 -69.56,11.57 -165.02,4.66 -234.83,-5.43z"/>
  <path class="fil5" d="M5714.58 6633.72c-23.25,-3.32 -62.95,-16.68 -78.68,-5.93 2.54,14.26 -10.1,11.44 32.7,18.35l139.61 15.86c33.92,1.68 67.91,1.81 101.82,0.07 38.16,-1.96 77.79,-0.24 80.38,-22.78 -15.45,-9.12 -65.69,1.98 -87.2,3.46 -52.79,3.66 -135.43,-1.41 -188.63,-9.03z"/>
  <path class="fil5" d="M4045.31 6699.27c-1.78,19.27 4.08,15.55 27.51,18.59 61.69,8.01 309.82,5.22 332.91,-28.99 -14.78,-17.49 -58.63,-0.05 -81.19,3.13 -68.56,9.69 -116.44,13.13 -185.68,11.2 -15.3,-0.43 -29.49,-1 -44.62,-2.68l-48.93 -1.25z"/>
  <path class="fil5" d="M4516.79 6600.64c12.57,12.5 38.04,6.7 64.29,6.7 70.33,0 155.9,3.48 224.98,17.95 21.02,4.4 48.29,17.65 63.84,10.46 -4.04,-30.33 -99.78,-36.86 -126.25,-39.99l-170.83 -8.66c-17.59,0 -54.9,-5.91 -56.03,13.54z"/>
  <path class="fil5" d="M4070.17 6581.45c6.74,16.12 -6.51,6 15.1,12.96 2.41,0.78 17.65,2.59 21.55,3.07 85,10.38 191.4,4.02 275.88,-11.73 20,-3.72 27.29,-1.54 32.47,-16.69 -12.17,-13.78 -30.32,-3.26 -74.18,3.54 -56.36,8.74 -128.62,13.13 -185.55,9.66l-68.08 -8.42c-24.27,-0.18 -11.6,0.68 -17.19,7.61z"/>
  <path class="fil5" d="M4534.59 6540.14c10.51,16.2 17.32,9.58 38.12,7.75 61.33,-5.4 165.19,5.52 226.88,13.99 13.26,1.83 26,3.51 39.01,5.7 11.89,2 39.88,10.5 33.2,-8.44 -8.04,-22.82 -244.05,-32.95 -298.98,-30.88 -47.29,1.78 -33.44,1.61 -38.23,11.88z"/>
  <path class="fil5" d="M4084.18 6519.49c8.21,18.81 42.72,17.78 75.98,19.59 44.17,2.41 246.91,-0.81 269.07,-27.86 -7.46,-21.32 -15.24,-9.03 -72.17,-0.8 -65.08,9.41 -123.32,13.55 -189.23,10.05 -49.58,-2.64 -70.45,-16.39 -83.65,-0.98z"/>
  <path class="fil5" d="M5662.72 6565.53c-18.65,-3.66 -20.72,-8.03 -31.25,3.53 3.21,4.06 -5.68,4.76 11.67,12.41 37.07,16.36 265.11,28.95 317.7,12.78l12.44 -6.43c0.52,-1.49 1.91,-1.38 2.71,-2.24 -7.66,-18.3 -14.88,-12.02 -35.38,-8.47 -14.99,2.59 -30.39,3.85 -45.68,4.91 -57.61,4.01 -132.43,-0.6 -189.67,-9.48 -14.3,-2.21 -28.65,-4.28 -42.54,-7.01z"/>
  <path class="fil5" d="M4535.52 6486.43c14.56,7.53 76.38,2.02 103.4,2.01 42.48,-0.03 81.64,2.18 123.61,6.74 41.14,4.47 94.46,22.25 106.99,11.91 -1.17,-15.8 5.26,-12.96 -43.86,-22.15 -19.15,-3.58 -39.89,-6.64 -59.63,-8.75 -83.24,-8.89 -117.61,-8.05 -193.36,-6.06 -22.43,0.59 -39.34,-4.57 -37.15,16.3z"/>
  <path class="fil5" d="M5423.86 6488.44c55.89,0.03 80.3,10.41 89.2,-9.25 -9.78,-11.94 -17.93,-8.39 -39.49,-9.06 -89.18,-2.77 -167.03,-1.87 -256.4,15.56 -23.04,4.49 -41.74,2.98 -39.77,23.27l14.61 2.62c0.76,-0.01 13.78,-2.54 14.13,-2.62 75.47,-17.52 139.35,-20.55 217.72,-20.52z"/>
  <path class="fil5" d="M5162.65 6453.38c16.92,12.75 57.99,-3.31 80.88,-6.81 27.47,-4.2 54,-7.26 81.51,-9.62 49.72,-4.27 150.53,4.19 160.11,-3.05 -5.6,-17.72 -10.56,-14.58 -32.59,-16.58 -15.38,-1.4 -29.72,-2.65 -45.23,-2.94 -30.75,-0.58 -61.96,1.06 -92.25,3.75 -25.6,2.29 -146.45,9.48 -152.43,35.25z"/>
  <path class="fil5" d="M4561.87 6428.6c9.13,18.69 18.63,8.01 68.62,6.12 57.52,-2.17 115.57,3.18 172.26,11.79 23.34,3.54 64.17,19.44 81.28,6.87 -6.43,-26.01 -125.62,-32.58 -151.59,-34.89 -37.39,-3.34 -149.47,-14.09 -170.57,10.11z"/>
  <path class="fil5" d="M5671.49 6457.5c-53.94,-7.74 -60.49,-19.86 -71.26,0.02 8.42,12.06 -3.24,4.58 15.7,10.37 45.57,13.92 190.36,23.43 241.85,18.78 23.16,-2.09 63.6,-1.14 74.76,-16.76 -7.11,-17.12 -11.1,-11.3 -32.41,-7.76 -14.76,2.45 -31.65,4.25 -46.59,5.29 -61.35,4.29 -121.55,-1.26 -182.05,-9.94z"/>
  <path class="fil5" d="M4114.15 6469.91c28.52,39.08 279.62,7.68 331.79,-6.08 -4.29,-28.45 -8.46,-15.24 -71.15,-6.24 -70.13,10.07 -158.58,16.22 -228.66,4.53 -20.93,-3.5 -24.88,-9.15 -31.98,7.79z"/>
  <path class="fil5" d="M4569.61 6374.88c15.65,9.5 88.15,1.68 118.88,1.68 107.85,0 175.11,19.07 178.11,19.1l10.57 -1.89c0.91,-0.21 2.44,-0.69 3.51,-1.34 2.29,-24.08 -61.64,-27.33 -81.06,-29.67 -49.71,-6 -161.97,-9.26 -214.53,-3.41 -18.53,2.06 -15.19,-3.65 -15.48,15.53z"/>
  <path class="fil5" d="M5173.96 6564.93c13,9.16 3,7.83 40.86,1.46 57.48,-9.67 151.99,-18.82 209.04,-19.64 21.61,-0.31 72.4,8.09 86.83,-2.48 -3.03,-18.89 -12.44,-14.9 -32.99,-15.8l-140.6 3.58c-30,2.66 -59.55,6.03 -89.29,9.98 -47.96,6.39 -68.45,2.73 -73.85,22.9z"/>
  <path class="fil5" d="M4513.28 6724.53c20.79,4.99 136.74,3.36 170.87,4.49 25.33,0.84 52.64,3.66 77.88,6.78 53.61,6.61 53.65,17.67 64.46,-1.49 -10.33,-14.12 -17.76,-11.24 -51.42,-16.59 -63.99,-10.17 -149.35,-10.98 -214.65,-10.98 -26.55,0 -44.73,-7.29 -47.14,17.79z"/>
  <path class="fil5" d="M5220.26 6734.31c8.45,15.13 8.8,11.51 28.41,7.46l117.37 -13.35c29.25,-1.18 149.75,2.47 165.33,-6.51 -0.57,-18.11 -5.96,-15.43 -28.68,-15.32 -86.71,0.43 -166.49,0.45 -252.86,14.62 -18.41,3.02 -20.99,1.42 -29.57,13.1z"/>
  <path class="fil5" d="M5166.04 6391.8l6.77 2.82c12.35,1.97 11.31,0.37 27.27,-3.77 56.14,-14.54 149.27,-15.34 207.35,-13.53 16.05,0.51 80.98,9.84 67.57,-11.61 -9.39,-15 -147.17,-9.08 -171.08,-7.46 -20.5,1.39 -141.46,6 -137.88,33.55z"/>
  <path class="fil5" d="M5157.28 6241.31c21.15,2.31 85.58,-33.95 226.74,-25.71 21.67,1.26 61.01,13.43 77.65,2.3 -3.05,-21.69 -23.83,-17.11 -70.75,-21.52 -55.1,-5.17 -118.41,-1.29 -172.18,10.5 -55.53,12.18 -59.47,13.28 -61.46,34.43z"/>
  <path class="fil5" d="M5602.5 6341.84c24.72,24.75 217.5,33.53 272.04,32.47 22.67,-0.45 25.95,1.55 28.79,-17.33 -9.25,-3.59 -131.02,-5.35 -159.49,-8.16 -25.87,-2.56 -52.09,-6.09 -77.81,-9.98 -18.13,-2.73 -61.19,-17.62 -63.53,3z"/>
  <path class="fil5" d="M5159.08 6186.75c12.46,5.89 99.18,-16.36 148.15,-19.63 26.31,-1.76 54.73,-1.88 81.52,-0.19 24.62,1.56 52.9,10.02 74.38,8.1 -1.59,-23.83 -3.69,-20.79 -68.02,-27.28 -53.72,-5.42 -118.57,0.8 -171.88,10.8 -59.3,11.13 -61.5,6.12 -64.15,28.2z"/>
  <path class="fil5" d="M4168.02 6268.5c14,5.93 199.86,-0.93 247.22,-7.1 48.34,-6.31 59.83,-2.02 61.35,-22.15 -14.52,-9.69 -100.81,10.3 -155.78,9.83l-125.64 0.36c-21.68,1.53 -24.7,0.3 -27.15,19.06z"/>
  <path class="fil5" d="M4584.95 6217.9c12.52,8.53 103.7,-5.63 159.95,-2.55 25.79,1.41 51.85,4.61 76.16,9.89 23.68,5.15 54.21,23.51 68.59,9.19 -4.53,-11.59 -1.62,-7.13 -10.96,-12.71 -37.33,-22.3 -170.55,-30.25 -223.39,-25.29 -13.83,1.3 -27.88,2.52 -41.61,3.97 -20.32,2.16 -26.41,0.04 -28.74,17.5z"/>
  <path class="fil5" d="M5878.78 6268.99c-4.43,-26.86 -42.21,-21.6 -91.37,-21.12 -83.3,0.81 -93.19,4.81 -185,-10.66 -9.13,-1.53 -30.3,-7.09 -32.09,5.88 -2.52,18.2 47.85,17.07 62.52,18.85 28.72,3.48 235.38,10.75 245.94,7.05z"/>
  <path class="fil5" d="M4887.76 6180.72c-6.72,-15.98 -32.37,-16.5 -64.67,-22.27 -75.51,-13.52 -136.49,-17.56 -212.33,-5.64 -38.83,6.11 -39.55,27.93 -0.27,20.35 42.24,-8.15 81.56,-8.66 124.99,-6.26 26.05,1.44 55.09,5.52 80.7,9.8 48.49,8.13 58.42,23.32 71.58,4.02z"/>
  <path class="fil5" d="M4589.28 6127.01c12.84,15.92 22.06,3.51 70.35,0.77 49.76,-2.81 110.46,3.09 159.38,12.91 14.87,2.99 72.74,24.86 64.78,1.37 -7.06,-20.85 -272.1,-60.77 -294.51,-15.05z"/>
  <path class="fil5" d="M5169.38 6329.45c3.84,4.95 -6.86,12.17 31.6,5.68 14.18,-2.4 27.16,-4.37 41.27,-5.89 26.58,-2.86 51.96,-5.02 78.33,-6.25 35.31,-1.64 88.45,-3.75 123.85,2.28 19.55,3.32 23.27,8.8 33.09,-4.09 -7.18,-18.21 -34.15,-17.03 -66.51,-18.61 -38.27,-1.85 -195.72,5.31 -226.54,14.48 -20.37,6.05 -8.39,-1.76 -15.09,12.4z"/>
  <path class="fil5" d="M4659.76 6252.75c-12.39,0.56 -72,5.69 -81.03,9.42 -7.14,2.95 -9.24,-1.2 -8.5,9.58 1.03,14.92 3.23,7.13 10.52,8.39 5.28,0.91 112.65,-16.8 206.87,-5.1 17.97,2.23 61.78,17.07 73.98,13.12 32.3,-10.47 -29.88,-25.61 -42.6,-28.03 -51.44,-9.78 -107.14,-9.77 -159.24,-7.38z"/>
  <path class="fil5" d="M4444.17 6341.84c-7.48,-18.87 -10.42,-10.93 -63.95,-2.93 -55.79,8.32 -144.02,18.4 -200,16.07 -17.06,-0.71 -34.76,-6.44 -36.2,7.75 -2.73,26.83 277.56,2.5 300.15,-20.89z"/>
  <path class="fil5" d="M5177.68 6282.85c13.24,14.79 13.14,3.92 58.89,-4.28 57.25,-10.25 105.75,-8.89 163.02,-5.1 22.36,1.48 62.72,13.17 77.11,2.59 -2.43,-21.02 -4.3,-15.31 -65.15,-21.04 -45.9,-4.32 -217.27,-10.59 -233.87,27.83z"/>
  <path class="fil5" d="M4196.23 6147.67c10.38,16.18 36.31,10.99 70.8,11.64 63.81,1.21 137.98,1.39 200.16,-13.35 23.13,-5.49 25.23,-3.26 27.25,-18.95 -12.4,-9.97 -80.68,11.23 -140.56,13.19 -27.33,0.89 -55.3,0.75 -82.65,0.14 -21.48,-0.48 -64.66,-12 -75,7.33z"/>
  <path class="fil5" d="M4569.13 6321.18c11.61,14.97 18.52,4.04 69.63,0.85 45.17,-2.82 119.1,2.05 165.31,7.24 21.79,2.44 63.97,18.43 72.55,-3.96 -0.81,-0.8 -2.18,-2.98 -2.69,-2.12l-70.01 -13.28c-62.56,-6.74 -143.48,-12.71 -205.86,-4 -18.71,2.62 -23.3,1.08 -28.93,15.27z"/>
  <path class="fil5" d="M5552.15 6127.01c2.34,19.31 17.25,18.8 61.27,25.32 71.72,10.63 135.55,7.65 207.28,5.69 23.72,-0.65 26.04,2.52 28.96,-14.48 -16.02,-13 -52.8,-3.67 -74.64,-3.19 -60.37,1.32 -131.18,1.2 -189.98,-13.64 -18.16,-4.58 -19.15,-10.88 -32.89,0.3z"/>
  <path class="fil5" d="M5162.04 6147.67c14.25,10.13 89.63,-13.68 143.87,-17.9 39.65,-3.07 78.29,-4.71 117.84,1.89 19.76,3.3 23.88,7.67 33.51,-4.65 -8.32,-17.74 -39.28,-17.72 -70.57,-19.13 -32.6,-1.46 -215.91,5.65 -224.65,39.79z"/>
  <path class="fil5" d="M4132.16 6413.08c1.32,20.84 16.95,15.92 60.58,14.97l149.64 -11.01c20.27,-2.44 58.02,0.58 60.77,-21.49 -16.25,-11.28 -105.57,7.36 -131.89,9.47 -28.99,2.32 -124.22,0.52 -139.1,8.06z"/>
  <path class="fil5" d="M5643.49 6395.55c2.65,21.24 34.9,17.96 57.12,21.08l148.77 11.31c49.58,1.21 63.9,6.5 65.03,-15.31 -14.26,-6.38 -111.33,-5.46 -139.55,-7.66 -26.12,-2.03 -115.41,-20.81 -131.37,-9.42z"/>
  <path class="fil5" d="M4227.49 6323.94c29.14,2 162.15,-7.65 197.64,-18.22 14.77,-4.4 14.01,-3.81 15.82,-18.94 -14.88,-4.35 -80.15,9.69 -104.76,11.75l-90.18 5.72c-24.87,2.58 -16.86,-0.95 -18.52,19.69z"/>
  <path class="fil5" d="M5605.77 6287.2c2.13,18.49 5.72,17.66 43.88,23.6l118.12 11.97c21.64,1.18 49.44,9.17 50.11,-11.39 -7.96,-7.55 -211.64,-24.51 -212.11,-24.18z"/>
  <path class="fil5" d="M4185.89 6205.01c6.88,8.93 -2.86,5.06 15.27,7.57 6.25,0.86 21.43,0.53 28.7,0.74 19.38,0.57 38.49,1.33 57.9,1.3l84.94 -2.38c23.44,-2.84 12.62,1.39 19.11,-10.86 -10.15,-17.48 -50.25,-6.18 -104.05,-6.21 -39.21,-0.02 -99,-9.08 -101.87,9.84z"/>
  <path class="fil5" d="M5655.94 6197.25c1.56,14.88 -5.39,13.77 40.42,15.46l145 0.13c17.22,-1.23 12.07,1.65 19.35,-7.19 -7.81,-21.02 -41.58,-10.53 -98.08,-10.47 -32.57,0.03 -95.77,-6.98 -106.69,2.07z"/>
  <path class="fil5" d="M3982.66 5041.89c218.31,-75.67 287.76,138.21 287.66,334.72 -0.22,408.31 78.82,660.54 578.21,711.13 381.38,38.64 428.16,-101.64 536.63,-125.2 167.67,154.6 53.85,235.97 99.9,432.29 119.63,10.87 -72.33,42.95 57.43,-23.97 141.54,-73 497.95,121.34 579.18,-133.26 72.26,-226.46 -370.62,-516.01 -665.5,-567.58 -158.37,-27.7 -191.01,39.96 -343.64,64.55 -136.17,21.93 -262.83,12.79 -371.1,-44.76 -72.04,-38.29 -178.43,-132.26 -189.76,-231.4 50.61,40.38 103.72,245.24 393.66,261.42 372.94,20.81 647.65,-245.86 793.13,-557.5 145.17,-310.96 101.91,-256.84 306.35,-362.21 -676.21,-145.65 -1308.58,718.73 -1454.81,409.27 -46.39,-98.18 -7.91,-204.58 -94,-315.56 -168.86,-217.68 -263.6,4.24 -400.86,44.13 -65.46,19.02 -101.44,41.07 -112.48,103.93z"/>
  <path class="fil5" d="M4609.04 5203.19c106.62,120.88 268.6,-4.33 416.68,-107.27 69.15,-48.07 80.86,-112.24 95.01,-204.21 20.27,-131.84 7.26,-164.77 78.82,-242.46 -239.82,17.42 -339.95,235.06 -459.2,398.14 -42.71,58.42 -100.85,91.22 -131.31,155.8z"/>
  <path class="fil1" d="M7618.31 6882.77l0 319.13c336.63,-57.68 563.63,-110.52 592.3,-139.8 73.61,-74.87 -592.3,-115.03 -592.3,-179.33z"/>
  <path class="fil1" d="M7618.31 6882.15l0 0.62c0,64.3 579.8,181.19 506.19,256.06l49.72 480.34c350.66,-9.37 690.53,30.15 707.96,32.88l-369.79 -428.13 370.33 -402.75c0,0 -685.05,-117.15 -1200.93,26.88 -44.35,12.08 -62.9,23.54 -63.48,34.1z"/>
  <path class="fil1" d="M7618.31 7201.9c-672.68,115.33 -1783.66,249.38 -2622.1,249.38 -838.43,0 -1949.44,-134.05 -2622.13,-249.38 -336.58,-57.68 -400.65,-80.2 -429.31,-109.48l-163 800.53c86.02,87.88 1956.75,389.49 3214.44,389.49 1257.65,0 3128.43,-301.61 3214.4,-389.49l-182.61 -804.11c-28.66,29.28 -73.06,55.38 -409.69,113.06z"/>
  <path class="fil7" d="M8210.61 7870.31l0 22.64c7.9,-7.83 7.3,-15.38 0,-22.64z"/>
  <path class="fil1" d="M2542.85 6865.51l-49.2 336.39c-336.58,-57.68 -563.64,-110.52 -592.31,-139.8 -73.61,-74.87 641.51,-132.29 641.51,-196.59z"/>
  <path class="fil1" d="M2499.06 6882.15l0 0.62c0,64.3 -572.83,174.98 -499.22,249.85l-93.09 475.96c-350.65,-9.37 -654.09,40.74 -671.52,43.47l369.79 -428.13 -370.37 -402.75c0,0 685.05,-117.15 1200.93,26.88 44.4,12.08 62.94,23.54 63.48,34.1z"/>
  <path class="fil8" d="M2453.34 6889.96l0.49 0 -0.49 0zm-1143.33 -48.23l337.22 366.74c8.57,9.31 8.81,20.77 0.64,30.2l-318.34 368.59c120.09,-14.91 260.75,-15.37 476.64,-12.89l60.69 -473.66c-7.47,-12.04 -16.53,-76.37 -9.03,-88.44 27.06,-43.56 147.25,-66.34 341.05,-99.85 79.75,-13.79 194.49,-33.64 238.75,-49.53 -5.32,-1.87 -12.27,-4.08 -21.38,-6.55 -405.41,-113.18 -928.07,-58.46 -1106.24,-34.61zm-73.12 840.83c-15.04,0 -29.89,-4.2 -39.23,-11.8 -11.94,-9.67 -14.62,-22.73 -5.32,-33.46l356.65 -412.92 -356.55 -387.76c-7.64,-8.29 -8.71,-18.3 -2.91,-27.19 5.74,-8.84 17.72,-15.52 32.37,-18 28.66,-4.88 707.82,-118.28 1233.44,28.42 38.6,10.5 90.75,28.42 92.54,61.26 0,0.34 0,0.7 0,1.04l0 0.62c0,50.82 -110.79,72.36 -323.19,109.1 -90.21,15.61 -237.62,41.11 -271.65,60.34 1.66,3.17 -57.02,71.58 -57.02,74.96l-29.16 450.98c0,144.6 -167.99,31.91 -617.7,103.46 -4.05,0.65 -8.19,0.95 -12.27,0.95z"/>
  <path class="fil7" d="M1781.77 7870.31l0 22.64c-7.84,-7.83 -7.3,-15.38 0,-22.64z"/>
  <path class="fil9" d="M1956.64 7050.33c35.98,15.98 198.26,80.07 520.09,136.91l2.13 -246.97c-53.69,14.57 -157.73,34.91 -254.17,51.6 -87.29,15.08 -228.16,39.48 -268.05,58.46zm542.42 182.38c-4.23,0 -8.57,-0.37 -12.8,-1.11 -565.83,-96.93 -607.4,-139.36 -621.04,-153.3 -14.21,-14.44 -16.85,-30.82 -7.39,-46.03 27.06,-43.56 147.25,-66.34 341.05,-99.85 90.11,-15.58 224.92,-38.93 252.23,-55.48 4.33,-14.23 24.15,-24.99 47.95,-24.99 26.97,0 48.82,13.8 48.82,30.82l0 319.13c0,9.58 -7.05,18.62 -19.12,24.48 -8.63,4.15 -19.09,6.33 -29.7,6.33z"/>
  <path class="fil2" d="M1810.1 7881.65l12.9 5.19c2.54,-2.52 2.58,-7.86 0.05,-10.35l-12.95 5.16zm-28.33 42.12c-16.41,0 -32.13,-5.22 -41.24,-14.31 -17.76,-17.7 -17.76,-37.98 0.06,-55.68 11.67,-11.55 33.97,-16.83 54.86,-13.05 20.83,3.84 35.19,15.88 35.19,29.58l0 22.64c0,13.74 -14.36,25.78 -35.24,29.62 -4.47,0.83 -9.11,1.2 -13.63,1.2z"/>
  <path class="fil9" d="M7667.13 6882.77l0.49 0 -0.49 0zm0 64.3l0 214.36c319.12,-56.38 339.55,-59.92 377.52,-76.65 -17.8,-42.45 -64.89,-77.85 -151.98,-92.91 -96.39,-16.69 -171.84,-30.23 -225.54,-44.8zm-48.82 285.64c-10.61,0 -21.03,-2.18 -29.65,-6.33 -12.12,-5.86 -19.19,-14.9 -19.19,-24.48l0 -319.13c0,-17.02 21.86,-30.82 48.84,-30.82 23.8,0 43.62,10.76 47.94,24.99 27.36,16.55 162.12,39.9 252.27,55.48 519.48,169.4 -78.99,272.56 -287.42,299.18 -4.22,0.74 -8.51,1.11 -12.79,1.11z"/>
  <path class="fil8" d="M8299.9 7576.57c199.5,0 375.96,16.77 487.93,30.69l-318.32 -368.59c-8.19,-9.43 -7.9,-20.89 0.63,-30.2l337.22 -366.74c-178.18,-23.87 -700.68,-78.57 -1105.81,34.49 -9.3,2.53 -16.41,4.77 -21.8,6.67 44.33,15.89 158.98,35.74 238.77,49.53 193.81,33.51 193.83,82.14 220.96,125.7 7.43,12.07 10.37,63.17 2.88,75.21l66.25 442.72c13.59,-0.15 77.9,0.52 91.29,0.52zm582.28 106.3c-3.95,0 -7.89,-0.31 -11.73,-0.93 -77.65,-12.35 -348.17,-50.81 -657.74,-42.57 -13,0.3 -26.29,-2.71 -35.88,-8.55 -9.59,-5.81 -15.04,-13.85 -15.04,-22.24l-108.82 -488.6c0,-165.45 -483.5,-134.75 -483.5,-237.21 0,-0.34 0,-1.29 0.06,-1.63 1.7,-32.84 53.84,-50.79 92.98,-61.41 525.18,-146.62 1204.34,-33.22 1233,-28.3 14.66,2.48 26.59,9.16 32.37,18 5.76,8.89 4.68,18.9 -2.91,27.19l-356.55 387.76 356.59 412.92c9.3,10.73 7.65,23.91 -4.23,33.58 -9.34,7.66 -23.71,11.99 -38.6,11.99z"/>
  <path class="fil8" d="M1830.64 7881.13c159.83,81.02 1942.7,370.49 3165.57,370.49 1220.69,0 2999.52,-288.46 3165.58,-370.86l-119.57 -729.27c-79.56,24.61 -112.59,28.99 -411.12,80.11 -727.15,124.68 -1823.85,250.49 -2634.89,250.49 -811.02,0 -1907.73,-125.81 -2634.93,-250.49 -298.47,-51.12 -332.28,-48.37 -411.84,-72.98l-118.8 722.51zm3165.57 432.12c-1238.84,0 -3150.14,-295.92 -3255.97,-404.11 -4.77,-4.85 -7.3,-10.47 -7.3,-16.19 16.2,-104.53 117.01,-846.93 119.73,-847.42 190.71,-34.75 -56.04,25.5 534.22,126.62 720.91,123.58 1807.29,248.31 2609.32,248.31 801.99,0 1888.41,-124.73 2609.29,-248.31l0 0c671.19,-82.89 451.97,-165.66 519,-33.32l134.94 754.12c0,5.72 -2.53,11.34 -7.25,16.19 -105.88,108.19 -2017.17,404.11 -3255.98,404.11z"/>
  <path class="fil2" d="M8169.38 7876.49c-2.53,2.49 -2.53,7.83 0,10.35l12.94 -5.19 -12.94 -5.16zm41.23 47.28c-4.52,0 -9.1,-0.37 -13.63,-1.2 -20.84,-3.84 -35.19,-15.88 -35.19,-29.62l0 -22.64c0,-13.7 14.35,-25.74 35.19,-29.58 20.99,-3.82 43.18,1.5 54.87,13.05 17.77,17.7 17.77,37.98 0,55.68 -9.11,9.09 -24.83,14.31 -41.24,14.31z"/>
  <path class="fil9" d="M2049.14 7697.98c50.05,15.52 85.2,-6.09 101.29,-58l76.72 -247.49 -49.12 -15.23 -77.88 251.2c-7.18,23.17 -19.5,28.49 -35.72,23.46 -16.21,-5.02 -23.36,-16.38 -16.18,-39.55l77.87 -251.2 -50.98 -15.8 -76.73 247.49c-16.09,51.9 0.67,89.6 50.73,105.12zm112.91 29.55l46.13 11.55 60.23 -240.51 0.94 0.23 1.9 256.08 53.19 13.31 82.5 -329.47 -46.12 -11.55 -49.39 197.22 -0.94 -0.24 -0.98 -209.83 -64.95 -16.27 -82.51 329.48zm202.47 47.93l52.16 11.36 72.32 -331.86 -52.16 -11.37 -72.32 331.87zm193.76 -329.32c8.67,-12.23 14.87,-16.5 22.51,-15.1 5.73,1.05 9.97,4.79 15.08,9.18 6.37,5.61 14.09,11.96 26.98,14.33 18.13,3.33 33.94,-7.57 50.79,-32.11l-22.49 -19.91c-8.66,12.21 -14.87,16.5 -22.51,15.1 -5.73,-1.06 -9.97,-4.8 -15.08,-9.19 -6.38,-5.61 -14.08,-11.96 -26.97,-14.33 -18.13,-3.33 -33.96,7.58 -50.8,32.11l22.49 19.92zm-114.31 345.54l48.68 8.95 21.56 -63.62 59.65 10.96 0.18 -0.96 -2.65 68.08 52.5 9.65 6.98 -344.05 -71.1 -13.07 -115.8 324.06zm84.78 -98.88l53.25 -160.9 0.95 0.17 -6.96 169.41 -47.24 -8.68zm193.13 152.72c51.67,8.72 85.07,-17.13 94.11,-70.71l29.72 -176.07c9.04,-53.59 -14.02,-88.97 -65.69,-97.69 -51.67,-8.73 -85.07,17.13 -94.11,70.72l-29.72 176.07c-9.04,53.58 14.02,88.96 65.69,97.68zm8.07 -47.84c-16.74,-2.83 -25.73,-13.69 -21.69,-37.62l30.85 -182.76c4.04,-23.92 16.09,-31.24 32.84,-28.41 16.74,2.82 25.74,13.69 21.7,37.61l-30.85 182.77c-4.04,23.92 -16.1,31.24 -32.85,28.41zm183.61 73.34l80.73 11.3c52.85,7.4 82.91,-18.28 90.44,-72.09l23.82 -170.11c7.54,-53.82 -14.31,-86.77 -67.16,-94.17l-80.73 -11.3 -47.1 336.37zm59.59 -40.65l33.64 -240.27 26.91 3.77c16.82,2.35 25.7,12.42 22.33,36.45l-24.49 174.9c-3.36,24.04 -14.67,31.27 -31.48,28.92l-26.91 -3.77zm122.52 62.78l49.19 5.37 16.87 -65.02 60.29 6.58 0.11 -0.96 2.32 68.09 53.06 5.8 -18.12 -343.65 -71.87 -7.85 -91.85 331.64zm77.34 -104.79l41.37 -164.36 0.96 0.1 5.41 169.47 -47.74 -5.21zm208.88 139.86l46.41 4.07 22.48 -256.17 0.97 0.08 16.18 259.57 44.47 3.91 61.16 -252.78 0.97 0.08 -22.49 256.18 50.27 4.41 29.7 -338.35 -75.89 -6.66 -55.09 239.19 -0.96 -0.09 -12.59 -245.13 -75.88 -6.66 -29.71 338.35zm332.87 29.02c52.28,3.52 82.93,-25.54 86.57,-79.76l11.99 -178.15c3.65,-54.23 -22.84,-87.13 -75.12,-90.65 -52.28,-3.52 -82.93,25.54 -86.58,79.77l-11.98 178.16c-3.65,54.21 22.83,87.12 75.12,90.63zm3.25 -48.41c-16.94,-1.14 -26.97,-11.05 -25.34,-35.26l12.44 -184.93c1.63,-24.21 12.89,-32.69 29.84,-31.55 16.94,1.14 26.97,11.06 25.35,35.26l-12.44 184.93c-1.63,24.21 -12.91,32.69 -29.85,31.55zm188.93 62.47c51.33,3.24 80.42,-26.03 83.73,-78.32l3.03 -47.95 -50.37 -3.19 -3.28 51.82c-1.41,22.28 -12.61,30.32 -28.59,29.3 -15.98,-1.01 -26.08,-10.39 -24.67,-32.67l11.98 -189.34c1.41,-22.28 12.64,-30.8 28.63,-29.79 15.98,1.01 26.04,10.88 24.63,33.16l-2.48 39.22 50.37 3.19 2.27 -35.83c3.31,-52.31 -21.86,-85.01 -73.19,-88.26 -51.32,-3.24 -80.4,26.03 -83.71,78.33l-11.52 182.08c-3.31,52.29 21.85,85 73.17,88.25zm111.11 -0.18l53.31 2.6 16.54 -339.25 -53.32 -2.6 -16.53 339.25zm93.16 4.67l81.46 3.21c53.33,2.11 80.68,-26.44 82.82,-80.74l6.76 -171.63c2.14,-54.3 -22.87,-84.91 -76.2,-87.01l-81.46 -3.21 -13.38 339.38zm55.25 -46.38l9.56 -242.42 27.15 1.07c16.97,0.67 26.8,9.81 25.85,34.05l-6.96 176.47c-0.95,24.25 -11.48,32.57 -28.45,31.9l-27.15 -1.07zm126.72 55.48l49.46 1.51 11.74 -66.14 60.63 1.86 0.03 -0.97 7.63 67.7 53.35 1.64 -44.89 -341.19 -72.26 -2.21 -65.69 337.8zm68.92 -110.51l28.42 -167.09 0.97 0.03 18.62 168.53 -48.01 -1.47zm139.72 115.52l81.51 1.37c53.36,0.9 80.05,-28.25 80.97,-82.58l2.9 -171.75c0.92,-54.33 -24.77,-84.37 -78.14,-85.27l-81.5 -1.38 -5.74 339.61zm54.19 -47.62l4.1 -242.57 27.16 0.46c16.98,0.29 27.02,9.2 26.61,33.45l-2.98 176.59c-0.41,24.26 -10.75,32.82 -27.72,32.53l-27.17 -0.46zm142.81 52.39l145.56 1.89 0.63 -48.52 -92.19 -1.19 1.36 -104.31 73.25 0.95 0.64 -48.52 -73.26 -0.95 1.17 -89.76 92.18 1.2 0.63 -48.52 -145.56 -1.89 -4.41 339.62zm253.76 4.51l81.52 -0.35c53.37,-0.23 79.44,-29.94 79.21,-84.28l-0.75 -171.77c-0.23,-54.34 -26.56,-83.83 -79.93,-83.59l-81.52 0.35 1.47 339.64zm53.17 -48.75l-1.05 -242.6 27.17 -0.12c16.98,-0.07 27.21,8.62 27.31,32.88l0.77 176.61c0.1,24.27 -10.05,33.04 -27.03,33.12l-27.17 0.11zm128.78 43.9l49.49 -0.64 8.84 -66.59 60.64 -0.8 -0.01 -0.97 10.58 67.31 53.37 -0.7 -59.75 -338.89 -72.28 0.94 -50.88 340.34zm64.03 -113.41l21.1 -168.17 0.97 -0.01 25.96 167.55 -48.03 0.63zm208.17 113.31l49.46 -1.51 7.67 -66.74 60.63 -1.86 -0.03 -0.97 11.76 67.11 53.35 -1.63 -65.69 -337.8 -72.26 2.22 -44.89 341.18zm62.03 -114.52l18.14 -168.52 0.97 -0.03 28.9 167.08 -48.01 1.47zm151.45 109.24l51.42 -1.57 -1.58 -51.41 -51.41 1.58 1.57 51.4zm91.21 -5.03l81.46 -3.22c53.33,-2.12 78.34,-32.73 76.18,-87.03l-6.8 -171.63c-2.15,-54.3 -29.5,-82.84 -82.83,-80.73l-81.45 3.23 13.44 339.38zm51.42 -50.59l-9.6 -242.42 27.15 -1.08c16.96,-0.67 27.49,7.66 28.45,31.9l6.99 176.47c0.96,24.25 -8.87,33.38 -25.84,34.05l-27.15 1.08zm142.66 40.72l51.38 -2.49 -2.49 -51.37 -51.38 2.49 2.49 51.37zm246.6 -6.17c52.26,-3.82 77.1,-36.77 73.14,-90.97l-18.89 -258.42 -51.29 3.75 19.17 262.29c1.77,24.2 -7.76,33.65 -24.7,34.89 -16.93,1.23 -27.73,-6.73 -29.5,-30.93l-19.17 -262.29 -53.24 3.9 18.89 258.42c3.96,54.19 33.32,83.18 85.59,79.36zm117.26 -13.81l53.22 -4.1 -10.62 -137.87 25.16 -1.94c53.21,-4.1 77.06,-35.62 72.88,-89.81l-2.57 -33.38c-4.17,-54.18 -32.57,-81.68 -85.78,-77.58l-78.38 6.04 26.09 338.64zm38.87 -190.36l-8.01 -104.01 25.16 -1.94c16.93,-1.3 26.72,5.74 28.58,29.93l3.09 40.15c1.87,24.19 -6.73,32.63 -23.66,33.94l-25.16 1.93zm117.41 176.82l49.3 -4.3 3.89 -67.06 60.42 -5.28 -0.08 -0.96 15.53 66.34 53.17 -4.64 -84.64 -333.56 -72.02 6.29 -25.57 343.17zm55.47 -117.84l8.6 -169.27 0.97 -0.08 38.28 165.18 -47.85 4.17zm153.09 101.84l47.33 -4.66 -24.3 -246.74 0.97 -0.1 88.03 240.47 54.57 -5.37 -33.28 -338.02 -47.32 4.66 19.92 202.33 -0.97 0.1 -71.59 -197.25 -66.63 6.57 33.27 338.01zm202.29 -24.7l144.51 -17.48 -5.82 -48.17 -91.53 11.07 -12.52 -103.56 72.73 -8.8 -5.83 -48.17 -72.73 8.8 -10.78 -89.12 91.53 -11.07 -5.83 -48.17 -144.52 17.48 40.79 337.19zm176.04 -20.03l46.04 -7.08 -39.1 -254.18 0.96 -0.14 77.47 248.27 44.12 -6.79 -0.73 -260.07 0.96 -0.15 39.09 254.17 49.88 -7.67 -51.64 -335.7 -75.29 11.58 3.39 245.43 -0.96 0.14 -70.53 -235.1 -75.29 11.58 51.63 335.71zm247.13 -36.72l48.87 -7.8 -0.89 -67.17 59.9 -9.55 -0.16 -0.96 20.21 65.07 52.71 -8.41 -108.15 -326.69 -71.39 11.39 -1.1 344.12zm46.95 -121.48l-3.46 -169.46 0.96 -0.15 49.93 162.04 -47.43 7.57zm146.15 87.57l45.18 -9.11 64.15 -359.42 -45.19 9.11 -64.14 359.42zm198.97 -42.55l51.93 -12.35 -33.68 -141.61 17.93 -4.27c23.61,-5.62 34.93,2.17 42.23,32.85l14.37 60.42c6.4,26.9 9.53,31.65 14.38,39.47l52.87 -12.58c-8.12,-11.04 -11.39,-22.73 -15.21,-38.77l-13.81 -58.06c-8.87,-37.3 -23.21,-59.82 -51.08,-61.66l-0.22 -0.96c20.88,-14.94 26.57,-39.23 18.49,-73.21l-4.83 -20.31c-12.13,-50.98 -41.2,-70.5 -95.02,-57.7l-76.95 18.31 78.6 330.43zm7.02 -201.17l-22.46 -94.41 23.6 -5.62c18.41,-4.38 28.91,4.11 34.52,27.71l6.06 25.49c6.29,26.43 -3.49,37.74 -22.84,42.34l-18.88 4.49zm183.33 156.26l45.46 -13.96 -72.78 -237.01 0.93 -0.29 134 218.22 52.42 -16.1 -99.7 -324.68 -45.46 13.95 59.68 194.36 -0.92 0.28 -109.32 -179.11 -64.01 19.65 99.7 324.69z"/>
  <path class="fil1" d="M3194.6 5013.43l0 0c146.83,0 265.82,-118.99 265.82,-265.82l0 0c0,146.83 119.03,265.82 265.82,265.82l0 0c-146.79,0 -265.82,118.99 -265.82,265.82l0 0c0,-146.83 -118.99,-265.82 -265.82,-265.82z"/>
  <path class="fil1" d="M3842.27 4881.81l0 0c0,-74.12 -60.08,-134.2 -134.16,-134.2l0 0c74.08,0 134.16,-60.08 134.16,-134.2l0 0c0,74.12 60.08,134.2 134.19,134.2l0 0c-74.11,0 -134.19,60.08 -134.19,134.2z"/>
  <path class="fil1" d="M3078.57 4881.81l0 0c0,-74.12 -60.07,-134.2 -134.19,-134.2l0 0c74.12,0 134.19,-60.08 134.19,-134.2l0 0c0,74.12 60.08,134.2 134.2,134.2l0 0c-74.12,0 -134.2,60.08 -134.2,134.2z"/>
 </g>
</svg>
